<svg width="153" height="40" viewBox="0 0 153 40" fill="none" xmlns="http://www.w3.org/2000/svg">
<path d="M5.91979 32.362C6.16644 32.1158 6.4131 31.968 6.65975 31.968C6.9064 31.968 7.15305 32.0665 7.39971 32.3128C7.64636 32.559 7.74502 32.8053 7.74502 33.0515C7.74502 33.2978 7.59703 33.544 7.35038 33.7903C7.10372 34.0365 6.85707 34.1843 6.61042 34.1843C6.36377 34.1843 6.11711 34.0858 5.87046 33.8395C5.62381 33.5933 5.52515 33.347 5.52515 33.1008C5.52515 32.8545 5.67314 32.6083 5.91979 32.362ZM7.05439 33.4455C7.20238 33.2978 7.30105 33.1008 7.35038 32.953C7.35038 32.8053 7.30105 32.6575 7.20239 32.559C6.95573 32.3128 6.65975 32.362 6.31443 32.7068C5.96912 33.0515 5.91979 33.347 6.16644 33.5933C6.31444 33.741 6.4131 33.7903 6.56109 33.741C6.70908 33.6918 6.85707 33.6425 7.05439 33.4455Z" fill="black"/>
<path d="M5.08105 29.5547L5.37703 29.9487L4.98239 30.9337L5.22904 30.983L5.82101 30.5397L6.06766 30.8845L4.39042 32.165L4.14377 31.8202L4.93306 31.2292H4.63707L3.69979 31.18L3.40381 30.8352L4.58774 30.8845L5.08105 29.5547Z" fill="black"/>
<path d="M3.79833 28.9144L4.48896 28.5203L4.68628 28.9144L2.81172 29.9486L2.51573 29.4069C2.36774 29.1606 2.31841 28.9636 2.36774 28.7666C2.41707 28.6189 2.51573 28.4711 2.66373 28.3726C2.76239 28.3233 2.91038 28.2741 3.00904 28.3233C3.1077 28.3233 3.25569 28.3726 3.35435 28.4711C3.60101 27.9786 3.79833 27.6338 3.84766 27.4861L4.09431 27.9293L3.65034 28.7666L3.79833 28.9144ZM3.45301 29.1114L3.40368 28.9636C3.35435 28.8159 3.25569 28.7666 3.20636 28.7173C3.15703 28.6681 3.05837 28.6681 2.95971 28.7173C2.86105 28.7666 2.81172 28.8159 2.81172 28.9144C2.81172 29.0129 2.86105 29.1114 2.91038 29.2099L2.95971 29.3576L3.45301 29.1114Z" fill="black"/>
<path d="M3.15706 25.6145L3.60103 26.7472L1.62781 27.5353L1.18384 26.4025L1.52915 26.2547L1.82514 26.9935L2.26911 26.8457L1.97313 26.107L2.31844 25.9592L2.56509 26.6487L3.0584 26.4517L2.76242 25.713L3.15706 25.6145ZM3.60103 25.8115C3.65037 25.8115 3.65037 25.7622 3.65037 25.7622C3.65037 25.713 3.65037 25.713 3.65037 25.6637C3.65037 25.6145 3.60104 25.5652 3.55171 25.516L3.79836 25.4175C3.84769 25.4667 3.89702 25.5652 3.89702 25.6145C3.94635 25.713 3.94635 25.8115 3.89702 25.91C3.84769 26.0085 3.79836 26.0577 3.6997 26.107C3.65037 26.107 3.60104 26.1562 3.50237 26.107C3.45304 26.107 3.35438 26.0577 3.25572 26.0085L3.15706 25.7622C3.25572 25.8115 3.30505 25.8115 3.35438 25.8607C3.40371 25.91 3.5517 25.8607 3.60103 25.8115Z" fill="black"/>
<path d="M1.52922 24.2354L1.3319 23.4474L2.41717 23.2012C2.51584 23.2997 2.56517 23.4474 2.6145 23.5459C2.66383 23.6444 2.71316 23.7922 2.71316 23.8907C2.81182 24.1862 2.76249 24.4817 2.6145 24.6787C2.4665 24.8757 2.21985 25.0234 1.87454 25.1219C1.52922 25.2204 1.28257 25.1712 1.03592 25.0234C0.789266 24.8757 0.641274 24.6294 0.542613 24.2847C0.493283 24.0877 0.493283 23.8414 0.542613 23.6444L0.937257 23.6937C0.887927 23.8414 0.887927 24.0384 0.937257 24.1862C0.986588 24.3832 1.08525 24.5309 1.23324 24.5802C1.38123 24.6787 1.57855 24.6787 1.77588 24.6294C2.02253 24.5802 2.17052 24.4817 2.26918 24.3832C2.36784 24.2847 2.36784 24.1369 2.36784 23.9399C2.36784 23.8414 2.31851 23.7429 2.26918 23.6937L1.82521 23.7922L1.92387 24.1862L1.52922 24.2354Z" fill="black"/>
<path d="M1.08526 20.3942C1.43057 20.3449 1.72656 20.4434 1.92388 20.5912C2.1212 20.7389 2.21986 20.9852 2.26919 21.3299C2.31852 21.6747 2.21986 21.9209 2.07187 22.1179C1.87455 22.3149 1.6279 22.4134 1.28258 22.4627C0.937267 22.5119 0.641284 22.4134 0.443962 22.2657C0.246639 22.1179 0.147978 21.8717 0.0986477 21.5269C0.0493172 21.1822 0.147979 20.9359 0.29597 20.7389C0.493292 20.4927 0.739945 20.3942 1.08526 20.3942ZM1.23325 21.9209C1.4799 21.9209 1.6279 21.8224 1.77589 21.7239C1.87455 21.6254 1.92388 21.4777 1.92388 21.3299C1.87455 20.9852 1.62789 20.8374 1.18392 20.8374C0.690614 20.8867 0.493292 21.0837 0.493292 21.4284C0.493292 21.6254 0.591953 21.7239 0.690614 21.8224C0.789275 21.9209 0.986598 21.9209 1.23325 21.9209Z" fill="black"/>
<path d="M2.31854 17.3406L2.26921 17.8331L1.1346 18.0301C1.08527 18.0301 1.03594 18.0301 0.88795 18.0793C0.739958 18.0793 0.690628 18.0793 0.641297 18.0793C0.690628 18.0793 0.789289 18.1286 0.88795 18.1286C0.986611 18.1778 1.08527 18.1778 1.1346 18.2271L2.21988 18.6211L2.17054 19.1136L0 19.4583L0.0493307 19.0151L1.23326 18.8673C1.43059 18.8181 1.62791 18.8181 1.7759 18.8181C1.72657 18.8181 1.62791 18.7688 1.52925 18.7688C1.43059 18.7196 1.33193 18.7196 1.28259 18.6703L0.147992 18.2763L0.197322 17.8331L1.38126 17.6361C1.43059 17.6361 1.52925 17.6361 1.62791 17.5868C1.72657 17.5868 1.82523 17.5868 1.92389 17.5868C1.82523 17.5868 1.7759 17.5376 1.62791 17.5376C1.52925 17.4883 1.43059 17.4883 1.38126 17.4391L0.246653 17.0451L0.295984 16.6018L2.31854 17.3406Z" fill="black"/>
<path d="M2.86123 14.8287H2.3186L2.12127 15.5674L2.56525 15.863L2.46659 16.3555L0.641357 15.0749L0.789349 14.5332L3.00922 14.3362L2.86123 14.8287ZM1.97328 14.8779C1.47998 14.8779 1.23332 14.9272 1.18399 14.9272C1.13466 14.9272 1.08533 14.9272 1.036 14.9272C1.13466 14.9764 1.43065 15.1734 1.87462 15.4197L1.97328 14.8779Z" fill="black"/>
<path d="M3.74909 12.4648L1.8252 11.5783L2.02252 11.1843L3.94641 12.0708L3.74909 12.4648Z" fill="black"/>
<path d="M5.13037 10.002L4.29175 11.3317L4.0451 11.184L3.35447 9.55871L2.86117 10.396L2.56519 10.199L3.35447 8.91846L3.60113 9.06621L4.34108 10.6915L4.88372 9.80497L5.13037 10.002Z" fill="black"/>
<path d="M3.99573 7.98291L4.39037 7.49041C4.58769 7.24416 4.73569 7.0964 4.88368 7.04715C5.03167 6.9979 5.17966 7.04715 5.32765 7.14565C5.42631 7.24416 5.47564 7.29341 5.52498 7.39191C5.57431 7.49041 5.52497 7.58891 5.47564 7.68741C5.57431 7.58891 5.67297 7.53966 5.77163 7.58891C5.87029 7.63816 5.96895 7.63816 6.06761 7.73666C6.2156 7.83516 6.31426 7.98291 6.26493 8.17992C6.2156 8.37692 6.16627 8.52467 6.01828 8.72167L5.52498 9.31268L3.99573 7.98291ZM4.93301 8.17992L5.081 7.98291C5.17966 7.88441 5.17966 7.78591 5.17966 7.73666C5.17966 7.68741 5.13033 7.58891 5.081 7.53966C5.03167 7.49041 4.93301 7.49041 4.88368 7.49041C4.83435 7.49041 4.73569 7.58891 4.68636 7.68741L4.53836 7.88441L4.93301 8.17992ZM5.17966 8.37692L5.62364 8.72167L5.82096 8.47542C5.91962 8.37692 5.91962 8.27842 5.91962 8.22917C5.91962 8.13067 5.87029 8.08142 5.82096 8.03217C5.67297 7.93366 5.52497 7.98291 5.37698 8.17992L5.17966 8.37692Z" fill="black"/>
<path d="M8.18892 6.55438L7.74495 6.30812L7.20231 6.84988L7.44896 7.34239L7.10365 7.68714L6.2157 5.61861L6.61034 5.22461L8.58356 6.25887L8.18892 6.55438ZM7.39963 6.11112C7.00499 5.86487 6.75833 5.76637 6.709 5.71712C6.65967 5.66786 6.61034 5.66786 6.56101 5.61861C6.61034 5.71712 6.75833 6.01262 7.00499 6.45587L7.39963 6.11112Z" fill="black"/>
<path d="M10.6554 3.05787C10.754 3.25487 10.8034 3.45187 10.754 3.59963C10.7047 3.79663 10.5567 3.94438 10.31 4.04288L10.1621 4.14138L10.5567 4.78164L10.1621 5.02789L9.07678 3.25487L9.66875 2.91012C9.86607 2.76237 10.0634 2.71311 10.2607 2.76237C10.4087 2.76237 10.5567 2.86087 10.6554 3.05787ZM9.96473 3.84588L10.1127 3.74738C10.2114 3.69813 10.31 3.59963 10.3594 3.50112C10.4087 3.40262 10.3594 3.35337 10.31 3.25487C10.2607 3.15637 10.2114 3.10712 10.1127 3.10712C10.0141 3.10712 9.96473 3.10712 9.86607 3.20562L9.66875 3.30412L9.96473 3.84588Z" fill="black"/>
<path d="M12.1847 3.89512L11.2968 1.97435L11.6914 1.77734L12.5793 3.69812L12.1847 3.89512Z" fill="black"/>
<path d="M14.7005 2.90997L13.5659 3.30397L12.8752 1.33395L14.0098 0.939941L14.1085 1.2847L13.3685 1.53095L13.5165 1.9742L14.2072 1.72795L14.3058 2.07271L13.6645 2.26971L13.8619 2.76221L14.6018 2.51596L14.7005 2.90997Z" fill="black"/>
<path d="M15.5885 2.66385L15.1445 0.595328L15.5885 0.496826L15.9338 2.2206L16.7724 2.0236L16.8711 2.36835L15.5885 2.66385Z" fill="black"/>
<path d="M18.9429 2.17124L17.759 2.26974L17.5616 0.151968L18.7949 0.0534668L18.8442 0.398221L18.055 0.447472L18.1043 0.890727L18.7949 0.841477L18.8442 1.18623L18.1536 1.23548L18.2029 1.77724L18.9922 1.72799L18.9429 2.17124ZM18.6469 2.516C18.6469 2.56525 18.6469 2.56525 18.6962 2.6145C18.6962 2.6145 18.7456 2.6145 18.7949 2.6145C18.8442 2.6145 18.8936 2.6145 18.9429 2.56525V2.8115C18.8442 2.86075 18.7949 2.86075 18.7456 2.86075C18.6469 2.86075 18.5483 2.86075 18.4989 2.8115C18.4496 2.76225 18.4003 2.66375 18.4003 2.56525C18.4003 2.516 18.4003 2.4175 18.4496 2.36825C18.4989 2.31899 18.5483 2.22049 18.6469 2.17124H18.8936C18.8442 2.22049 18.7949 2.31899 18.7456 2.36825C18.6469 2.4175 18.6469 2.46675 18.6469 2.516Z" fill="black"/>
<path d="M20.7189 0.989228L21.5575 1.03848L21.5082 2.12199C21.3602 2.17124 21.2615 2.17124 21.1135 2.22049C21.0149 2.22049 20.8669 2.22049 20.7682 2.22049C20.4722 2.22049 20.2256 2.12199 20.0283 1.92499C19.8803 1.72799 19.7816 1.48173 19.8309 1.08773C19.8309 0.742976 19.9789 0.496722 20.1763 0.29972C20.3736 0.102717 20.6696 0.0534668 21.0149 0.0534668C21.2122 0.0534668 21.4589 0.102718 21.6562 0.201219L21.5082 0.545973C21.3602 0.447472 21.2122 0.398221 21.0149 0.398221C20.8176 0.398221 20.6696 0.447472 20.5216 0.595224C20.4229 0.742976 20.3243 0.890727 20.3243 1.08773C20.3243 1.33398 20.3736 1.48173 20.4229 1.62949C20.5216 1.77724 20.6202 1.82649 20.8176 1.82649C20.9162 1.82649 21.0149 1.82649 21.1135 1.82649V1.38323H20.7189V0.989228Z" fill="black"/>
<path d="M24.32 2.71302L23.7773 2.61452L23.1854 0.841496C23.136 1.137 23.136 1.334 23.0867 1.4325L22.8894 2.41752L22.4948 2.31901L22.9387 0.250488L23.4814 0.34899L24.0733 2.07276C24.1227 1.77726 24.1227 1.62951 24.172 1.48175L24.3693 0.496741L24.764 0.595243L24.32 2.71302Z" fill="black"/>
<path d="M25.2572 3.00853L25.9478 0.989258L26.3918 1.13701L25.7012 3.15628L25.2572 3.00853Z" fill="black"/>
<path d="M27.8224 4.04281L27.9211 3.50105L27.2305 3.15629L26.8851 3.5503L26.4412 3.3533L28.0197 1.72803L28.513 1.97428L28.2664 4.23981L27.8224 4.04281ZM27.9704 3.15629C28.0197 2.66379 28.0691 2.41754 28.0691 2.36829C28.0691 2.31903 28.0691 2.26978 28.1184 2.22053C28.0197 2.31903 27.8224 2.56529 27.4771 2.91004L27.9704 3.15629Z" fill="black"/>
<path d="M29.7463 4.19061L29.3024 4.88011L28.9077 4.63386L30.0423 2.86084L30.5356 3.20559C30.7823 3.35335 30.9303 3.5011 30.9796 3.6981C31.0289 3.84585 31.0289 4.04285 30.8809 4.19061C30.8316 4.28911 30.7329 4.38761 30.6343 4.38761C30.5356 4.43686 30.3876 4.43686 30.289 4.43686C30.289 5.02787 30.289 5.37262 30.289 5.56962L29.8943 5.27412V4.33836L29.7463 4.19061ZM29.9437 3.8951L30.0423 3.9936C30.141 4.0921 30.2396 4.09211 30.3383 4.09211C30.437 4.09211 30.4863 4.04285 30.5356 3.94435C30.585 3.84585 30.585 3.7966 30.585 3.6981C30.5356 3.64885 30.4863 3.55035 30.3383 3.45185L30.2396 3.35335L29.9437 3.8951Z" fill="black"/>
<path d="M31.8183 6.85005L30.881 6.06204L32.2622 4.43677L33.1995 5.22478L32.9529 5.52028L32.3609 5.02778L32.0649 5.37253L32.6076 5.81579L32.3609 6.11129L31.8183 5.66803L31.473 6.06204L32.0649 6.55454L31.8183 6.85005Z" fill="black"/>
<path d="M33.6434 8.72148L33.2981 8.32747L33.5941 7.34246L33.3474 7.29321L32.8048 7.78572L32.5088 7.44096L34.0874 6.0127L34.3833 6.35745L33.6434 6.99771L33.9394 6.94846L34.8767 6.89921L35.222 7.24396L34.038 7.39171L33.6434 8.72148Z" fill="black"/>
<path d="M34.8273 10.396L36.6525 9.3125L36.8992 9.70651L35.0246 10.79L34.8273 10.396Z" fill="black"/>
<path d="M37.9845 13.6466C37.7872 13.7451 37.5899 13.7451 37.4419 13.6466C37.2939 13.5481 37.1459 13.4003 37.0472 13.1541L36.9979 12.9571L36.3073 13.2033L36.1593 12.8093L38.1325 12.0706L38.3792 12.7108C38.4778 12.9571 38.4778 13.1541 38.4285 13.3018C38.3792 13.4496 38.1819 13.5973 37.9845 13.6466ZM37.2939 12.8586L37.3432 13.0063C37.3926 13.1541 37.4419 13.2033 37.5406 13.2526C37.6392 13.3018 37.6885 13.3018 37.7872 13.2526C37.8859 13.2033 37.9352 13.1541 37.9845 13.1048C38.0339 13.0556 37.9845 12.9571 37.9352 12.8093L37.8859 12.6123L37.2939 12.8586Z" fill="black"/>
<path d="M38.3298 16.6509C37.9845 16.7494 37.6885 16.7002 37.4912 16.5524C37.2939 16.4047 37.1459 16.2077 37.0472 15.9122C36.9979 15.6166 36.9979 15.3211 37.1459 15.1241C37.2939 14.9271 37.5405 14.7794 37.8858 14.6809C38.2311 14.5824 38.5271 14.6316 38.7244 14.7794C38.9218 14.9271 39.0698 15.1241 39.1684 15.4689C39.2177 15.7644 39.2177 16.0599 39.0698 16.2569C38.9218 16.4539 38.6751 16.6017 38.3298 16.6509ZM37.9845 15.1734C37.7378 15.2226 37.5898 15.3211 37.4912 15.4196C37.3925 15.5181 37.3432 15.6659 37.3925 15.8629C37.4912 16.2077 37.7378 16.3554 38.1818 16.2077C38.6258 16.1092 38.8231 15.8629 38.7738 15.5181C38.7244 15.3211 38.6258 15.2226 38.5271 15.1734C38.4285 15.1241 38.2311 15.1241 37.9845 15.1734Z" fill="black"/>
<path d="M37.4419 17.833L38.1325 17.7838L38.0832 17.6853L38.3298 17.4883L38.5272 17.7345L39.5631 17.636L39.6124 18.0793L38.8725 18.1285L39.0205 18.3255L38.6752 18.5225L38.4285 18.1778L37.8365 18.227L37.8859 19.0643L37.5406 19.1136L37.4419 17.833Z" fill="black"/>
<path d="M38.4778 21.9206C38.1325 21.9206 37.8859 21.8221 37.6885 21.6251C37.4912 21.4281 37.4419 21.1818 37.4419 20.8863C37.4419 20.5416 37.5899 20.3446 37.7872 20.1476C37.9845 19.9998 38.2805 19.9013 38.6258 19.9506C38.9711 19.9506 39.2178 20.0491 39.4151 20.2461C39.6124 20.4431 39.6618 20.6893 39.6618 20.9848C39.6618 21.3296 39.5138 21.5266 39.3165 21.7236C39.1191 21.8713 38.8231 21.9206 38.4778 21.9206ZM38.5765 20.3938C38.3298 20.3938 38.1819 20.3938 38.0339 20.4923C37.8859 20.5908 37.8365 20.6893 37.8365 20.8863C37.8365 21.2311 38.0339 21.4281 38.5272 21.4773C39.0205 21.5266 39.2671 21.3296 39.2671 20.9848C39.2671 20.7878 39.2178 20.6893 39.1191 20.5908C38.9711 20.4431 38.8231 20.3938 38.5765 20.3938Z" fill="black"/>
<path d="M36.9978 24.1371L37.2938 22.6104L37.5898 22.6596L38.823 23.9401L39.0204 22.9551L39.3657 23.0536L39.0697 24.5311L38.823 24.4326L37.5898 23.1521L37.3924 24.1864L36.9978 24.1371ZM39.6617 23.5954C39.8096 23.6446 39.859 23.6939 39.8096 23.8909C39.7603 24.0386 39.711 24.0879 39.563 24.0879C39.5137 24.0879 39.4643 24.0386 39.415 23.9894C39.3657 23.9401 39.3657 23.8909 39.415 23.7924C39.4643 23.6446 39.563 23.5954 39.6617 23.5954Z" fill="black"/>
<path d="M36.1593 26.6489L36.3566 26.1072L38.1819 25.7624C37.8859 25.6639 37.7379 25.6147 37.5899 25.5654L36.6526 25.2207L36.8006 24.8267L38.7738 25.5654L38.5765 26.1072L36.8006 26.4519C37.0472 26.5504 37.2446 26.5997 37.3432 26.6489L38.2805 26.9937L38.1325 27.3877L36.1593 26.6489Z" fill="black"/>
<path d="M36.5046 28.7668L37.0472 29.5548L36.8006 29.998L36.0113 28.7668L35.3207 28.3728L35.518 27.9788L36.2086 28.3728H37.6885L37.4912 28.7668H36.5046Z" fill="black"/>
<path d="M35.4687 31.3275C35.5674 31.1798 35.6167 31.032 35.5674 30.8843C35.5181 30.7365 35.4194 30.5888 35.2221 30.441C34.8274 30.1455 34.5315 30.1948 34.3341 30.441C34.2355 30.5395 34.1861 30.7365 34.0875 30.9335L33.7915 30.7365C33.8408 30.5395 33.9395 30.3918 34.0382 30.1948C34.2355 29.9485 34.4328 29.8008 34.6795 29.8008C34.9261 29.8008 35.1728 29.85 35.4687 30.0963C35.6661 30.244 35.7647 30.3918 35.8634 30.5395C35.962 30.6873 35.962 30.8843 35.962 31.032C35.962 31.1798 35.8634 31.3768 35.7647 31.5246C35.6661 31.6723 35.4687 31.8201 35.2714 31.9186L35.0741 31.5738C35.1728 31.5246 35.2221 31.4753 35.2714 31.426C35.3701 31.4753 35.4194 31.4261 35.4687 31.3275Z" fill="black"/>
<path d="M31.9169 32.7066L32.2129 32.4111L32.8542 33.0514L33.4461 32.4604L32.8048 31.8201L33.1008 31.4753L34.6301 32.9529L34.3341 33.2976L33.7421 32.7066L33.1501 33.2976L33.7421 33.8886L33.4461 34.1841L31.9169 32.7066Z" fill="black"/>
<path d="M15.1445 39.4047L14.6512 39.257L14.7005 38.1242C14.7005 38.075 14.7005 37.9765 14.7005 37.8779C14.7005 37.7794 14.7006 37.6809 14.7499 37.6317C14.7499 37.6809 14.7005 37.7794 14.6512 37.8779C14.6019 37.9765 14.5526 38.075 14.5526 38.1242L13.9606 39.1092L13.4673 38.9615L13.5166 36.7944L13.9606 36.8929L13.9113 38.0749C13.9113 38.272 13.8619 38.469 13.8619 38.6167C13.8619 38.5675 13.9113 38.469 13.9606 38.3705C14.0099 38.272 14.0593 38.1735 14.1086 38.1242L14.7499 37.0899L15.1445 37.1884L15.0952 38.4197C15.0952 38.469 15.0952 38.5675 15.0952 38.666C15.0952 38.7645 15.0952 38.863 15.0459 38.9615C15.0952 38.9122 15.0952 38.8137 15.1445 38.7152C15.1939 38.6167 15.2432 38.5182 15.2925 38.469L15.8845 37.4347L16.3285 37.5332L15.1445 39.4047Z" fill="black"/>
<path d="M17.3643 39.7987L17.4136 39.1092L17.315 39.1584L17.167 38.8629L17.463 38.7152L17.5616 37.6809L18.0056 37.7302L17.9563 38.4689L18.1536 38.3704L18.3016 38.6659L17.907 38.8629L17.8576 39.4539L18.6962 39.5524L18.6469 39.8972L17.3643 39.7987Z" fill="black"/>
<path d="M21.3109 38.8629C21.3109 39.2076 21.2616 39.5031 21.0642 39.6509C20.9162 39.8479 20.6696 39.9464 20.3243 39.9464C19.979 39.9464 19.7323 39.8479 19.5843 39.7001C19.4363 39.5524 19.3377 39.2569 19.2883 38.9121C19.2883 38.5674 19.3377 38.2719 19.535 38.1241C19.683 37.9271 19.9296 37.8286 20.2749 37.8286C20.6203 37.8286 20.8669 37.9271 21.0149 38.0749C21.2122 38.2719 21.2616 38.5181 21.3109 38.8629ZM19.7323 38.9121C19.7323 39.1584 19.7816 39.3061 19.8803 39.4539C19.979 39.5524 20.1269 39.6509 20.2749 39.6016C20.6203 39.6016 20.8176 39.3554 20.8176 38.8629C20.8176 38.3704 20.6203 38.1734 20.2749 38.1734C20.0776 38.1734 19.979 38.2226 19.8803 38.3704C19.7816 38.5181 19.7323 38.6659 19.7323 38.9121Z" fill="black"/>
<path d="M23.7281 38.5181C23.7774 38.8628 23.7281 39.1583 23.5801 39.3553C23.4321 39.5523 23.1361 39.7001 22.7908 39.7493L22.1988 39.8479L21.8535 37.7793L22.4948 37.6808C22.8401 37.6316 23.1361 37.6808 23.3334 37.8286C23.5308 37.9763 23.6787 38.1733 23.7281 38.5181ZM23.2841 38.6166C23.2348 38.1733 22.9881 37.9763 22.5935 38.0256L22.3468 38.0748L22.5441 39.4538L22.7415 39.4046C23.1361 39.3061 23.3334 39.0598 23.2841 38.6166Z" fill="black"/>
<path d="M25.9972 39.0107L24.4679 39.4047L24.3693 39.1092L24.9612 37.4346L24.024 37.6809L23.9253 37.3361L25.4052 36.9421L25.5039 37.2376L24.9119 38.9122L25.8985 38.6167L25.9972 39.0107Z" fill="black"/>
<path d="M26.6385 38.8138L25.8986 36.8438L26.3425 36.696L27.0825 38.6661L26.6385 38.8138Z" fill="black"/>
<path d="M33.5447 11.0364C33.2487 10.3961 32.7554 9.70659 31.9168 9.16483C31.0782 8.62307 29.9436 8.22907 28.3157 8.17982C24.6159 8.08132 22.4947 9.55884 21.2614 11.0364L18.7455 10.6423C17.4629 9.26333 15.3911 8.08132 12.0366 8.17982C8.78076 8.27832 7.3995 9.75584 6.80753 11.0364C6.11691 12.5139 6.21557 14.3361 6.65954 15.8629C7.00486 17.0942 7.69549 18.1777 8.63277 19.0642C9.61938 20 10.5073 20.8372 11.3459 21.6745L12.3819 25.319L15.4897 26.1563C19.4855 30.9336 19.8801 33.1006 19.9295 33.1006C19.9295 33.1991 20.0281 33.2976 20.1761 33.2976C20.2748 33.2976 20.4228 33.1991 20.4228 33.1006C20.4228 33.0514 20.8174 31.0321 24.5172 26.5996L29.8942 25.8115L30.8315 19.9015C31.1768 19.5567 31.5715 19.1627 31.9661 18.818C32.5581 18.2762 33.0514 17.6359 33.3474 16.8972C34.0873 15.2719 34.4326 12.9079 33.5447 11.0364ZM18.4989 11.1349L19.2388 11.2334L20.9161 11.4796L21.4587 11.5781L25.9478 12.2184L20.6201 13.1049L20.2254 13.1541L19.3868 12.2676L18.2029 11.0364L18.4989 11.1349ZM10.5567 18.9657L9.57005 18.7195L9.07674 16.9957L16.575 18.8672L21.3601 17.9807L22.84 19.5075L19.8308 20L10.2113 17.8329L10.5567 18.9657ZM21.952 17.8329L21.4094 17.2912L23.3826 17.5867L26.4411 18.0299L26.9344 18.1284L29.2529 18.4732L26.8357 18.8672L26.3424 18.9657L23.5306 19.409L21.952 17.8329ZM24.8625 17.3404L26.5398 17.0449L26.4411 17.5867L24.8625 17.3404ZM16.6243 15.9122L8.23812 14.0899L7.69549 12.2184L16.575 14.1884H16.6243L20.1268 13.6466L20.3734 13.5974L27.2797 12.4646L26.9837 14.2869L16.6243 15.9122ZM7.25151 11.2334C8.0408 9.60809 9.61938 8.72158 12.0366 8.67232H12.3819C14.9964 8.67232 16.723 9.50958 17.9069 10.5438L16.8216 10.3961L19.6335 13.3019L16.6243 13.7944L7.10352 11.6766C7.15285 11.4796 7.20218 11.3319 7.25151 11.2334ZM9.07674 18.818C7.94214 17.7837 7.15285 16.4047 6.9062 14.8779C6.70887 13.8436 6.70887 12.7109 7.05419 11.7259L9.07674 18.818C9.12607 18.818 9.12607 18.818 9.07674 18.818ZM9.47139 19.1627L10.7046 19.5075L11.05 20.6895C10.5567 20.197 10.0634 19.7045 9.47139 19.1627ZM20.1761 32.2634C19.7815 31.2784 18.7949 29.4068 16.3777 26.4025L19.6335 27.2891L23.7279 26.698C21.4587 29.5546 20.5708 31.3276 20.1761 32.2634ZM30.3382 19.6552L30.2396 20.4925V20.5417L29.7956 23.2505L29.4503 25.4175L24.9612 26.0578L24.2212 26.1563L19.6828 26.7966L15.835 25.7623L14.9471 25.516L12.8259 24.925L12.3326 23.2013L12.0859 22.4132L11.7899 21.4282L11.4939 20.3447L11.2966 19.6552L11.1486 19.1135L10.9513 18.4732L18.8442 20.2462L19.8801 20.4925L26.7371 19.409L30.5355 18.818L30.3382 19.6552ZM33.0021 16.5032C32.7061 17.2912 32.1634 17.9807 31.5715 18.5717C31.3742 18.7687 31.1768 18.9657 30.9302 19.1627L31.0782 18.2269L30.7822 18.2762L26.9344 17.6852L27.8224 11.9721L27.5264 12.0214L21.8534 11.1349C23.0373 9.80509 25.0105 8.62307 28.3157 8.67232C30.7329 8.72158 32.3608 9.60809 33.1007 11.2334C33.89 12.9079 33.594 14.9764 33.0021 16.5032Z" fill="black"/>
<path d="M30.2396 20.5417L29.7957 23.2505L27.0332 23.743L26.1945 23.8908L19.7816 25.0728L13.8619 23.5953L12.9739 23.349L12.2833 23.2013L12.0367 22.364L11.79 21.379L11.4447 20.3447H11.494L19.8309 22.167L29.3024 20.6895L30.141 20.591L30.2396 20.5417Z" fill="#D42A27"/>
<path d="M55.6656 8.3494C55.6656 9.37544 55.4189 10.1552 54.9257 10.6888C54.4324 11.2223 53.6924 11.5096 52.7469 11.5096C51.8014 11.5096 51.0615 11.2223 50.5682 10.6888C50.0749 10.1552 49.8282 9.37544 49.8282 8.3494C49.8282 7.32337 50.0749 6.54358 50.6093 6.01004C51.1026 5.4765 51.8425 5.18921 52.788 5.18921C53.7335 5.18921 54.4735 5.4765 54.9668 6.01004C55.419 6.54358 55.6656 7.32337 55.6656 8.3494ZM51.1848 8.3494C51.1848 9.04711 51.3081 9.53961 51.5959 9.90898C51.8837 10.2784 52.2536 10.4425 52.788 10.4425C53.8157 10.4425 54.3501 9.74481 54.3501 8.3494C54.3501 6.95399 53.8157 6.25629 52.788 6.25629C52.2536 6.25629 51.8837 6.42045 51.5959 6.78983C51.3081 7.11816 51.1848 7.6517 51.1848 8.3494Z" fill="#656565"/>
<path d="M58.0499 8.84184L58.6254 8.14413L59.9409 6.70768H61.3796L59.4887 8.75975L61.4619 11.4275H59.982L58.6254 9.53954L58.091 9.991V11.4685H56.8167V4.90186H58.091V7.8158L58.0499 8.84184Z" fill="#656565"/>
<path d="M64.7916 6.62573C64.9561 6.62573 65.1205 6.62573 65.2438 6.66677L65.1616 7.85698C65.0383 7.81594 64.9149 7.81594 64.7916 7.81594C64.3805 7.81594 64.0517 7.93906 63.8461 8.14427C63.6406 8.34948 63.5173 8.63677 63.5173 9.04718V11.4276H62.2429V6.70782H63.2295L63.4351 7.4876H63.5173C63.6817 7.24136 63.8461 6.99511 64.0928 6.83094C64.2161 6.70782 64.5039 6.62573 64.7916 6.62573Z" fill="#656565"/>
<path d="M68.1623 11.5097C67.4224 11.5097 66.8057 11.3045 66.3947 10.894C65.9836 10.4836 65.7369 9.86801 65.7369 9.12926C65.7369 8.34948 65.9425 7.73385 66.3124 7.2824C66.7235 6.87198 67.2579 6.62573 67.9568 6.62573C68.6145 6.62573 69.1489 6.83094 69.5189 7.20031C69.8889 7.56969 70.0944 8.10323 70.0944 8.75989V9.37551H67.0524C67.0524 9.74489 67.1757 10.0322 67.3813 10.2374C67.5868 10.4426 67.8746 10.5247 68.2445 10.5247C68.5323 10.5247 68.7789 10.4836 69.0667 10.4426C69.3544 10.4016 69.6011 10.2784 69.8477 10.1553V11.1403C69.6422 11.2634 69.3956 11.3455 69.1078 11.3865C68.8612 11.4686 68.5323 11.5097 68.1623 11.5097ZM67.9979 7.52865C67.7101 7.52865 67.5046 7.61073 67.3402 7.7749C67.1757 7.93906 67.0935 8.18531 67.0935 8.51364H68.9023C68.9023 8.18531 68.82 7.93906 68.6556 7.7749C68.4912 7.61073 68.2856 7.52865 67.9979 7.52865ZM68.7378 12.2895C68.7378 12.4126 68.7789 12.4947 68.82 12.5357C68.9023 12.5767 68.9845 12.6178 69.0667 12.6178C69.2311 12.6178 69.3956 12.5767 69.56 12.5357V13.2745C69.3133 13.3565 69.1078 13.3565 68.9023 13.3565C68.5734 13.3565 68.3268 13.2745 68.1212 13.0692C67.9157 12.9051 67.8334 12.6588 67.8334 12.3715C67.8334 12.1663 67.8746 12.0022 67.9979 11.838C68.1212 11.6738 68.2856 11.4686 68.6145 11.2634H69.3545C69.1489 11.4686 68.9845 11.6328 68.9023 11.7559C68.82 11.879 68.7378 12.1253 68.7378 12.2895Z" fill="#656565"/>
<path d="M75.2331 6.70782V7.36448L74.4931 7.56969C74.6165 7.7749 74.6987 8.02114 74.6987 8.26739C74.6987 8.75989 74.5342 9.17031 74.1643 9.4576C73.7943 9.74489 73.3421 9.86801 72.6844 9.86801H72.4377L72.2322 9.82697C72.1089 9.90905 72.0266 10.0322 72.0266 10.1553C72.0266 10.3605 72.2733 10.4426 72.7255 10.4426H73.5065C74.0409 10.4426 74.4109 10.5657 74.6987 10.7709C74.9864 10.9761 75.1098 11.3045 75.1098 11.7559C75.1098 12.2895 74.8631 12.7409 74.4109 13.0282C73.9587 13.3155 73.301 13.4797 72.4377 13.4797C71.78 13.4797 71.2867 13.3565 70.9167 13.1513C70.5879 12.9051 70.3823 12.6178 70.3823 12.2074C70.3823 11.9201 70.4645 11.6738 70.629 11.5097C70.7934 11.3455 71.0812 11.1813 71.41 11.0993C71.2867 11.0582 71.1634 10.9351 71.0812 10.812C70.9989 10.6888 70.9167 10.5657 70.9167 10.4015C70.9167 10.2374 70.9578 10.0732 71.0812 9.95009C71.2045 9.82697 71.3278 9.70384 71.5333 9.58072C71.2867 9.4576 71.0812 9.29343 70.9578 9.04718C70.7934 8.80093 70.7523 8.51364 70.7523 8.22635C70.7523 7.69281 70.9167 7.32344 71.2456 7.03615C71.5745 6.74886 72.0678 6.62573 72.6844 6.62573C72.8077 6.62573 72.9721 6.62573 73.1366 6.66677C73.301 6.70782 73.4243 6.70782 73.4654 6.70782H75.2331ZM71.5745 12.0843C71.5745 12.2484 71.6567 12.4126 71.8211 12.4947C71.9855 12.5767 72.2322 12.6588 72.5199 12.6588C72.9721 12.6588 73.3421 12.5767 73.5888 12.4536C73.8354 12.3305 73.9998 12.1663 73.9998 11.9201C73.9998 11.7559 73.9176 11.6328 73.7532 11.5507C73.5888 11.4686 73.3421 11.4686 73.0544 11.4686H72.3966C72.15 11.4686 71.9444 11.5097 71.8211 11.6328C71.6567 11.7559 71.5745 11.9201 71.5745 12.0843ZM72.0678 8.26739C72.0678 8.51364 72.1089 8.71885 72.2322 8.88301C72.3555 9.04718 72.5199 9.08822 72.7666 9.08822C73.0132 9.08822 73.1777 9.00614 73.301 8.88301C73.4243 8.75989 73.4654 8.51364 73.4654 8.26739C73.4654 7.69281 73.2188 7.40552 72.7666 7.40552C72.2733 7.40552 72.0678 7.69281 72.0678 8.26739Z" fill="#656565"/>
<path d="M80.2483 9.04696C80.2483 9.82675 80.0428 10.4013 79.6317 10.8528C79.2206 11.3042 78.6451 11.5095 77.9462 11.5095C77.4941 11.5095 77.083 11.4274 76.7541 11.2222C76.4253 11.017 76.1375 10.7297 75.9731 10.3603C75.8086 9.99092 75.6853 9.53946 75.6853 9.04696C75.6853 8.26717 75.8908 7.69259 76.3019 7.24114C76.713 6.78968 77.2885 6.58447 77.9874 6.58447C78.4395 6.58447 78.8506 6.66656 79.1795 6.87176C79.5084 7.07697 79.7961 7.36426 79.9605 7.73363C80.125 8.10301 80.2483 8.55446 80.2483 9.04696ZM77.0008 9.04696C77.0008 9.49842 77.083 9.86779 77.2474 10.114C77.4118 10.3603 77.6585 10.4834 77.9874 10.4834C78.3162 10.4834 78.5629 10.3603 78.7273 10.114C78.8917 9.86779 78.9328 9.53946 78.9328 9.04696C78.9328 8.59551 78.8506 8.22613 78.6862 7.97988C78.5218 7.73363 78.2751 7.61051 77.9462 7.61051C77.6174 7.61051 77.3707 7.73363 77.2063 7.93884C77.083 8.22613 77.0008 8.59551 77.0008 9.04696Z" fill="#656565"/>
<path d="M85.1811 11.4273L84.8111 9.78563L84.3178 7.69252H84.2767L83.4134 11.4273H82.0157L80.6592 6.70752H81.9335L82.4679 8.80064C82.5501 9.17001 82.6324 9.70355 82.7146 10.3602H82.7557C82.7557 10.155 82.7968 9.82667 82.9201 9.33418L83.0023 8.9648L83.5779 6.70752H84.9755L85.5099 8.9648C85.5099 9.04688 85.551 9.12897 85.551 9.25209C85.551 9.37522 85.5921 9.49834 85.6333 9.62147C85.6744 9.74459 85.6744 9.90876 85.6744 10.0319C85.6744 10.155 85.7155 10.2781 85.7155 10.3602H85.7566C85.7977 10.155 85.8388 9.86771 85.8799 9.53938C85.9621 9.17001 86.0032 8.9648 86.0032 8.84168L86.5787 6.74856H87.8531L86.4965 11.4683H85.1811V11.4273Z" fill="#656565"/>
<path d="M91.6351 11.4276L91.3884 10.7709H91.3473C91.1418 11.0582 90.8951 11.2224 90.6896 11.3455C90.4429 11.4686 90.1552 11.5097 89.7852 11.5097C89.333 11.5097 88.9631 11.3865 88.7164 11.1403C88.4698 10.894 88.3464 10.5247 88.3464 10.0322C88.3464 9.53968 88.5109 9.17031 88.8808 8.92406C89.2508 8.67781 89.7441 8.55468 90.4841 8.51364L91.3062 8.4726V8.26739C91.3062 7.77489 91.0596 7.56969 90.5663 7.56969C90.1963 7.56969 89.7441 7.69281 89.2508 7.89802L88.8397 7.03615C89.3741 6.74886 89.9908 6.62573 90.6485 6.62573C91.2651 6.62573 91.7584 6.74886 92.0873 7.03615C92.4161 7.32344 92.5806 7.73385 92.5806 8.30843V11.4276H91.6351ZM91.2651 9.25239H90.7718C90.4018 9.25239 90.1141 9.33447 89.9496 9.4576C89.7852 9.58072 89.6619 9.78593 89.6619 10.0322C89.6619 10.4016 89.8674 10.5657 90.2785 10.5657C90.5663 10.5657 90.8129 10.4836 90.9774 10.3195C91.1418 10.1553 91.2651 9.90905 91.2651 9.62176V9.25239Z" fill="#656565"/>
<path d="M96.1571 11.4275V5.27124H97.4726V11.4275H96.1571Z" fill="#656565"/>
<path d="M102.159 11.4275H98.4181V10.6888L100.597 7.73377H98.5414V6.74878H102.077V7.56961L99.9391 10.4425H102.159V11.4275Z" fill="#656565"/>
<path d="M105.694 6.62562C106.27 6.62562 106.681 6.83083 107.01 7.28229C107.338 7.73374 107.462 8.30832 107.462 9.04707C107.462 9.82686 107.297 10.4425 106.969 10.8529C106.64 11.2633 106.187 11.5096 105.653 11.5096C105.119 11.5096 104.666 11.3044 104.338 10.8939H104.255L104.05 11.4275H103.063V4.86084H104.338V6.37937C104.338 6.58458 104.338 6.87187 104.296 7.32333H104.338C104.666 6.87187 105.119 6.62562 105.694 6.62562ZM105.283 7.65166C104.954 7.65166 104.749 7.73374 104.584 7.93895C104.42 8.14416 104.379 8.47249 104.338 8.92395V9.04707C104.338 9.53957 104.42 9.90894 104.543 10.1141C104.708 10.3194 104.913 10.4425 105.242 10.4425C105.489 10.4425 105.735 10.3194 105.859 10.0731C106.023 9.82686 106.105 9.45749 106.105 9.00603C106.105 8.55457 106.023 8.1852 105.859 7.97999C105.776 7.77479 105.571 7.65166 105.283 7.65166Z" fill="#656565"/>
<path d="M111.49 11.4276L111.244 10.7709H111.203C110.997 11.0582 110.75 11.2224 110.545 11.3455C110.298 11.4686 110.011 11.5097 109.641 11.5097C109.188 11.5097 108.818 11.3865 108.572 11.1403C108.325 10.894 108.202 10.5247 108.202 10.0322C108.202 9.53968 108.366 9.17031 108.736 8.92406C109.106 8.67781 109.599 8.55468 110.339 8.51364L111.162 8.4726V8.26739C111.162 7.77489 110.915 7.56969 110.422 7.56969C110.052 7.56969 109.599 7.69281 109.106 7.89802L108.695 7.03615C109.229 6.74886 109.846 6.62573 110.504 6.62573C111.12 6.62573 111.614 6.74886 111.943 7.03615C112.271 7.32344 112.436 7.73385 112.436 8.30843V11.4276H111.49ZM111.12 9.25239H110.627C110.257 9.25239 109.969 9.33447 109.805 9.4576C109.641 9.58072 109.517 9.78593 109.517 10.0322C109.517 10.4016 109.723 10.5657 110.134 10.5657C110.422 10.5657 110.668 10.4836 110.833 10.3195C110.997 10.1553 111.12 9.90905 111.12 9.62176V9.25239Z" fill="#656565"/>
<path d="M54.1404 19.1001C54.1404 19.7568 53.9348 20.2493 53.5237 20.6186C53.1127 20.988 52.5371 21.1522 51.7561 21.1522H51.1806V23.3274H49.8651V17.1711H51.8383C52.5782 17.1711 53.1538 17.3353 53.5237 17.6636C53.9348 17.9509 54.1404 18.4434 54.1404 19.1001ZM51.1806 20.044H51.5917C52.0027 20.044 52.2905 19.962 52.496 19.7978C52.7016 19.6336 52.7838 19.4284 52.7838 19.1001C52.7838 18.8128 52.7016 18.5666 52.5371 18.4024C52.3727 18.2382 52.1261 18.1972 51.7561 18.1972H51.1806V20.044Z" fill="#656565"/>
<path d="M55.1271 17.3764C55.1271 16.9659 55.3737 16.7607 55.8259 16.7607C56.2781 16.7607 56.5247 16.9659 56.5247 17.3764C56.5247 17.5816 56.4836 17.7457 56.3603 17.8278C56.237 17.9509 56.0726 17.992 55.8259 17.992C55.3326 18.033 55.1271 17.8278 55.1271 17.3764ZM56.4425 23.3274H55.1682V18.6076H56.4425V23.3274Z" fill="#656565"/>
<path d="M59.8955 23.4096C59.1555 23.4096 58.5389 23.2044 58.1278 22.7939C57.7167 22.3835 57.4701 21.7679 57.4701 21.0292C57.4701 20.2494 57.6756 19.6338 58.0456 19.1823C58.4567 18.7719 58.9911 18.5256 59.6899 18.5256C60.3477 18.5256 60.8821 18.7308 61.252 19.1002C61.622 19.4696 61.8276 20.0031 61.8276 20.6598V21.2754H58.7856C58.7856 21.6448 58.9089 21.9321 59.1144 22.1373C59.32 22.3425 59.6077 22.4246 59.9777 22.4246C60.2654 22.4246 60.5121 22.3835 60.7999 22.3425C61.0876 22.3015 61.3343 22.1783 61.5809 22.0552V23.0402C61.3754 23.1633 61.1287 23.2454 60.841 23.2864C60.5943 23.3685 60.2654 23.4096 59.8955 23.4096ZM59.731 19.4285C59.4433 19.4285 59.2377 19.5106 59.0733 19.6748C58.9089 19.839 58.8267 20.0852 58.8267 20.4135H60.6354C60.6354 20.0852 60.5532 19.839 60.3888 19.6748C60.2243 19.5106 59.9777 19.4285 59.731 19.4285Z" fill="#656565"/>
<path d="M64.1297 23.3274H62.8553V16.7607H64.1297V23.3274Z" fill="#656565"/>
<path d="M67.5826 23.4096C66.8427 23.4096 66.226 23.2044 65.815 22.7939C65.4039 22.3835 65.1572 21.7679 65.1572 21.0292C65.1572 20.2494 65.3628 19.6338 65.7327 19.1823C66.1438 18.7719 66.6782 18.5256 67.3771 18.5256C68.0348 18.5256 68.5692 18.7308 68.9392 19.1002C69.3092 19.4696 69.5147 20.0031 69.5147 20.6598V21.2754H66.4727C66.4727 21.6448 66.596 21.9321 66.8016 22.1373C67.0071 22.3425 67.2949 22.4246 67.6648 22.4246C67.9526 22.4246 68.1992 22.3835 68.487 22.3425C68.7747 22.3015 69.0214 22.1783 69.268 22.0552V23.0402C69.0625 23.1633 68.8159 23.2454 68.5281 23.2864C68.2814 23.3685 67.9526 23.4096 67.5826 23.4096ZM67.4182 19.4285C67.1304 19.4285 66.9249 19.5106 66.7604 19.6748C66.596 19.839 66.5138 20.0852 66.5138 20.4135H68.3226C68.3226 20.0852 68.2403 19.839 68.0759 19.6748C67.9115 19.5106 67.6648 19.4285 67.4182 19.4285ZM68.117 24.1894C68.117 24.3125 68.1581 24.3946 68.1992 24.4356C68.2814 24.4766 68.3637 24.5177 68.4459 24.5177C68.6103 24.5177 68.7747 24.4766 68.9392 24.4356V25.1744C68.6925 25.2564 68.487 25.2564 68.2814 25.2564C67.9526 25.2564 67.7059 25.1744 67.5004 24.9691C67.2949 24.805 67.2126 24.5587 67.2126 24.2714C67.2126 24.0662 67.2537 23.9021 67.3771 23.7379C67.5004 23.5737 67.6648 23.3685 67.9937 23.1633H68.7336C68.5281 23.3685 68.3637 23.5327 68.2814 23.6558C68.1992 23.9021 68.117 24.0252 68.117 24.1894Z" fill="#656565"/>
<path d="M74.6122 18.6077V19.2644L73.8723 19.4696C73.9956 19.6748 74.0778 19.921 74.0778 20.1673C74.0778 20.6598 73.9134 21.0702 73.5434 21.3575C73.1734 21.6448 72.7213 21.7679 72.0635 21.7679H71.8169L71.6113 21.7269C71.488 21.809 71.4058 21.9321 71.4058 22.0552C71.4058 22.2604 71.6524 22.3425 72.1046 22.3425H72.8857C73.4201 22.3425 73.7901 22.4656 74.0778 22.6708C74.3656 22.876 74.4889 23.2044 74.4889 23.6558C74.4889 24.1894 74.2423 24.6408 73.7901 24.9281C73.3379 25.2154 72.6801 25.3796 71.8169 25.3796C71.1592 25.3796 70.6658 25.2564 70.2959 25.0512C69.967 24.805 69.7615 24.5177 69.7615 24.1073C69.7615 23.82 69.8437 23.5737 70.0081 23.4096C70.1726 23.2454 70.4603 23.0812 70.7892 22.9992C70.6659 22.9581 70.5425 22.835 70.4603 22.7119C70.3781 22.5887 70.2959 22.4656 70.2959 22.3015C70.2959 22.1373 70.337 21.9731 70.4603 21.85C70.5836 21.7269 70.707 21.6037 70.9125 21.4806C70.6658 21.3575 70.4603 21.1933 70.337 20.9471C70.1726 20.7008 70.1314 20.4135 70.1314 20.1263C70.1314 19.5927 70.2959 19.2233 70.6247 18.936C70.9536 18.6488 71.4469 18.5256 72.0635 18.5256C72.1868 18.5256 72.3513 18.5256 72.5157 18.5667C72.6801 18.6077 72.8035 18.6077 72.8446 18.6077H74.6122ZM70.9947 23.9842C70.9947 24.1483 71.0769 24.3125 71.2414 24.3946C71.4058 24.4767 71.6524 24.5587 71.9402 24.5587C72.3924 24.5587 72.7624 24.4767 73.009 24.3535C73.2557 24.2304 73.4201 24.0662 73.4201 23.82C73.4201 23.6558 73.3379 23.5327 73.1734 23.4506C73.009 23.3685 72.7624 23.3685 72.4746 23.3685H71.8169C71.5702 23.3685 71.3647 23.4096 71.2414 23.5327C71.0769 23.6558 70.9947 23.82 70.9947 23.9842ZM71.4469 20.1673C71.4469 20.4135 71.488 20.6188 71.6113 20.7829C71.7347 20.9471 71.8991 20.9881 72.1457 20.9881C72.3924 20.9881 72.5568 20.906 72.6801 20.7829C72.8035 20.6188 72.8446 20.4135 72.8446 20.1673C72.8446 19.5927 72.5979 19.3054 72.1457 19.3054C71.6936 19.3054 71.4469 19.5927 71.4469 20.1673Z" fill="#656565"/>
<path d="M79.7508 23.3275H78.4765V20.5777C78.4765 20.2494 78.4353 20.0031 78.312 19.7979C78.1887 19.6338 77.9832 19.5517 77.7365 19.5517C77.3665 19.5517 77.1199 19.6748 76.9555 19.921C76.791 20.1673 76.7088 20.5777 76.7088 21.1112V23.3275H75.4344V18.6077H76.421L76.5855 19.2233H76.6677C76.791 18.9771 76.9966 18.8129 77.2432 18.6898C77.4899 18.5667 77.7776 18.5256 78.1065 18.5256C78.6409 18.5256 79.052 18.6898 79.3397 18.9771C79.6275 19.2644 79.7508 19.7158 79.7508 20.2494V23.3275Z" fill="#656565"/>
<path d="M80.984 17.3764C80.984 16.9659 81.2307 16.7607 81.6829 16.7607C82.135 16.7607 82.3817 16.9659 82.3817 17.3764C82.3817 17.5816 82.3406 17.7457 82.2173 17.8278C82.0939 17.9509 81.9295 17.992 81.6829 17.992C81.1896 18.033 80.984 17.8278 80.984 17.3764ZM82.2995 23.3274H81.0251V18.6076H82.2995V23.3274Z" fill="#656565"/>
<path d="M86.6158 23.3275L86.3691 22.6708H86.328C86.1225 22.9581 85.8758 23.1223 85.6703 23.2454C85.4237 23.3685 85.1359 23.4096 84.7659 23.4096C84.3137 23.4096 83.9438 23.2864 83.6971 23.0402C83.4505 22.794 83.3271 22.4246 83.3271 21.9321C83.3271 21.4396 83.4916 21.0702 83.8615 20.824C84.2315 20.5777 84.7248 20.4546 85.4648 20.4135L86.2869 20.3725V20.1673C86.2869 19.6748 86.0403 19.4696 85.547 19.4696C85.177 19.4696 84.7248 19.5927 84.2315 19.7979L83.8204 18.936C84.3548 18.6488 84.9715 18.5256 85.6292 18.5256C86.2458 18.5256 86.7391 18.6488 87.068 18.936C87.3968 19.2233 87.5613 19.6338 87.5613 20.2083V23.3275H86.6158ZM86.2458 21.1523H85.7525C85.3826 21.1523 85.0948 21.2344 84.9304 21.3575C84.7659 21.4806 84.6426 21.6858 84.6426 21.9321C84.6426 22.3015 84.8481 22.4656 85.2592 22.4656C85.547 22.4656 85.7936 22.3835 85.9581 22.2194C86.1225 22.0552 86.2458 21.809 86.2458 21.5217V21.1523Z" fill="#656565"/>
<path d="M91.4665 18.5256C91.631 18.5256 91.7954 18.5256 91.9187 18.5667L91.8365 19.7569C91.7132 19.7158 91.5899 19.7158 91.4665 19.7158C91.0555 19.7158 90.7266 19.839 90.5211 20.0442C90.2744 20.2494 90.1922 20.5367 90.1922 20.9471V23.3275H88.9178V18.6077H89.9044L90.11 19.3875H90.1922C90.3566 19.1413 90.5211 18.895 90.7677 18.7308C90.891 18.6077 91.1788 18.5256 91.4665 18.5256Z" fill="#656565"/>
<path d="M94.8374 23.4096C94.0974 23.4096 93.4808 23.2044 93.0697 22.7939C92.6586 22.3835 92.412 21.7679 92.412 21.0292C92.412 20.2494 92.6175 19.6338 92.9875 19.1823C93.3986 18.7719 93.933 18.5256 94.6318 18.5256C95.2896 18.5256 95.824 18.7308 96.1939 19.1002C96.5639 19.4696 96.7694 20.0031 96.7694 20.6598V21.2754H93.7274C93.7274 21.6448 93.8508 21.9321 94.0563 22.1373C94.2619 22.3425 94.5496 22.4246 94.9196 22.4246C95.2073 22.4246 95.454 22.3835 95.7417 22.3425C96.0295 22.3015 96.2761 22.1783 96.5228 22.0552V23.0402C96.3173 23.1633 96.0706 23.2454 95.7829 23.2864C95.5362 23.3685 95.2073 23.4096 94.8374 23.4096ZM94.6729 19.4285C94.3852 19.4285 94.1796 19.5106 94.0152 19.6748C93.8508 19.839 93.7686 20.0852 93.7686 20.4135H95.5773C95.5773 20.0852 95.4951 19.839 95.3307 19.6748C95.1662 19.5106 94.9607 19.4285 94.6729 19.4285Z" fill="#656565"/>
<path d="M99.0305 20.7417L99.606 20.044L100.921 18.6076H102.36L100.469 20.6597L102.442 23.3274H100.963L99.606 21.4394L99.0716 21.8909V23.3684H97.7972V16.8018H99.0716V19.7157L99.0305 20.7417Z" fill="#656565"/>
<path d="M105.279 17.3764C105.279 16.9659 105.526 16.7607 105.978 16.7607C106.43 16.7607 106.677 16.9659 106.677 17.3764C106.677 17.5816 106.635 17.7457 106.512 17.8278C106.389 17.9509 106.224 17.992 105.978 17.992C105.526 18.033 105.279 17.8278 105.279 17.3764ZM106.635 23.3274H105.361V18.6076H106.635V23.3274Z" fill="#656565"/>
<path d="M114.528 19.1001C114.528 19.7568 114.323 20.2493 113.912 20.6186C113.5 20.988 112.925 21.1522 112.144 21.1522H111.568V23.3274H110.253V17.1711H112.226C112.966 17.1711 113.542 17.3353 113.912 17.6636C114.323 17.9509 114.528 18.4434 114.528 19.1001ZM111.568 20.044H111.979C112.391 20.044 112.678 19.962 112.884 19.7978C113.089 19.6336 113.172 19.4284 113.172 19.1001C113.172 18.8128 113.089 18.5666 112.925 18.4024C112.761 18.2382 112.514 18.1972 112.144 18.1972H111.568V20.044Z" fill="#656565"/>
<path d="M119.831 20.9471C119.831 21.7269 119.626 22.3015 119.214 22.7529C118.803 23.2044 118.228 23.4096 117.529 23.4096C117.077 23.4096 116.666 23.3275 116.337 23.1223C116.008 22.9171 115.72 22.6298 115.556 22.2604C115.391 21.8911 115.268 21.4396 115.268 20.9471C115.268 20.1673 115.474 19.5927 115.885 19.1413C116.296 18.6898 116.871 18.4846 117.57 18.4846C118.022 18.4846 118.433 18.5667 118.762 18.7719C119.091 18.9771 119.379 19.2644 119.543 19.6338C119.708 20.0032 119.831 20.4546 119.831 20.9471ZM116.584 20.9471C116.584 21.3986 116.666 21.7679 116.83 22.0142C116.995 22.2604 117.241 22.3836 117.57 22.3836C117.899 22.3836 118.146 22.2604 118.31 22.0142C118.475 21.7679 118.516 21.4396 118.516 20.9471C118.516 20.4957 118.433 20.1263 118.269 19.88C118.105 19.6338 117.858 19.5107 117.529 19.5107C117.2 19.5107 116.954 19.6338 116.789 19.839C116.666 20.1263 116.584 20.4957 116.584 20.9471Z" fill="#656565"/>
<path d="M122.257 19.3874L122.544 19.2232L123.038 20.044L122.257 20.4955V23.2863H120.982V21.2753L120.694 21.4805L120.201 20.6597L120.982 20.2082V16.8018H122.257V19.3874Z" fill="#656565"/>
<path d="M127.971 20.9471C127.971 21.7269 127.765 22.3015 127.354 22.7529C126.943 23.2044 126.367 23.4096 125.669 23.4096C125.216 23.4096 124.805 23.3275 124.476 23.1223C124.148 22.9171 123.86 22.6298 123.695 22.2604C123.531 21.8911 123.408 21.4396 123.408 20.9471C123.408 20.1673 123.613 19.5927 124.024 19.1413C124.435 18.6898 125.011 18.4846 125.71 18.4846C126.162 18.4846 126.573 18.5667 126.902 18.7719C127.231 18.9771 127.518 19.2644 127.683 19.6338C127.847 20.0032 127.971 20.4546 127.971 20.9471ZM124.723 20.9471C124.723 21.3986 124.805 21.7679 124.97 22.0142C125.134 22.2604 125.381 22.3836 125.71 22.3836C126.039 22.3836 126.285 22.2604 126.45 22.0142C126.614 21.7679 126.655 21.4396 126.655 20.9471C126.655 20.4957 126.573 20.1263 126.408 19.88C126.244 19.6338 125.997 19.5107 125.669 19.5107C125.34 19.5107 125.093 19.6338 124.929 19.839C124.805 20.1263 124.723 20.4957 124.723 20.9471Z" fill="#656565"/>
<path d="M132.287 23.3274H128.546V22.5886L130.725 19.6336H128.669V18.6076H132.205V19.4284L130.067 22.3013H132.287V23.3274ZM129.738 17.3764C129.738 16.9659 129.985 16.7607 130.437 16.7607C130.889 16.7607 131.136 16.9659 131.136 17.3764C131.136 17.5816 131.095 17.7457 130.971 17.8278C130.848 17.9509 130.684 17.992 130.437 17.992C129.985 18.033 129.738 17.8278 129.738 17.3764Z" fill="#656565"/>
<path d="M137.549 23.3275H136.274V20.5777C136.274 20.2494 136.233 20.0031 136.11 19.7979C135.987 19.6338 135.781 19.5517 135.534 19.5517C135.165 19.5517 134.918 19.6748 134.753 19.921C134.589 20.1673 134.507 20.5777 134.507 21.1112V23.3275H133.232V18.6077H134.219L134.383 19.2233H134.466C134.589 18.9771 134.795 18.8129 135.041 18.6898C135.288 18.5667 135.576 18.5256 135.904 18.5256C136.439 18.5256 136.85 18.6898 137.138 18.9771C137.425 19.2644 137.549 19.7158 137.549 20.2494V23.3275Z" fill="#656565"/>
<path d="M138.165 18.6077H139.563L140.467 21.2754C140.55 21.5216 140.591 21.7679 140.632 22.0962H140.673C140.714 21.8089 140.755 21.5216 140.837 21.2754L141.701 18.6077H143.098L141.125 23.902C140.961 24.3945 140.673 24.7639 140.344 25.0101C140.015 25.2564 139.604 25.3795 139.152 25.3795C138.946 25.3795 138.7 25.3385 138.494 25.2974V24.2714C138.659 24.3124 138.823 24.3124 138.987 24.3124C139.234 24.3124 139.399 24.2304 139.604 24.1072C139.768 23.9841 139.892 23.7789 140.015 23.4916L140.097 23.2454L138.165 18.6077Z" fill="#656565"/>
<path d="M145.647 23.4096C144.167 23.4096 143.427 22.5887 143.427 20.9881C143.427 20.2083 143.633 19.5927 144.044 19.1413C144.455 18.7308 145.03 18.5256 145.77 18.5256C146.305 18.5256 146.798 18.6488 147.25 18.854L146.88 19.839C146.675 19.7569 146.469 19.6748 146.305 19.6338C146.14 19.5927 145.976 19.5517 145.77 19.5517C145.113 19.5517 144.784 20.0442 144.784 20.9881C144.784 21.891 145.113 22.3835 145.77 22.3835C146.017 22.3835 146.264 22.3425 146.469 22.3015C146.675 22.2194 146.88 22.1373 147.086 21.9731V23.0812C146.88 23.2044 146.675 23.2864 146.469 23.3685C146.223 23.3685 145.976 23.4096 145.647 23.4096Z" fill="#656565"/>
<path d="M152.512 23.3274H151.238V20.5776C151.238 19.8799 150.991 19.5516 150.498 19.5516C150.128 19.5516 149.881 19.6747 149.717 19.9209C149.552 20.1672 149.47 20.5776 149.47 21.1111V23.3274H148.196V16.7607H149.47V18.1151C149.47 18.2382 149.47 18.4434 149.429 18.8539L149.388 19.2232H149.47C149.758 18.7718 150.21 18.5255 150.827 18.5255C151.361 18.5255 151.813 18.6897 152.101 18.977C152.389 19.2643 152.512 19.7157 152.512 20.2493V23.3274Z" fill="#656565"/>
<path d="M54.3048 35.0572L53.9348 33.4155L53.4415 31.3224H53.4004L52.5371 35.0572H51.1395L49.8651 30.3374H51.1395L51.6739 32.4305C51.7561 32.7999 51.8383 33.3334 51.9205 33.9901H51.9616C51.9616 33.7849 52.0027 33.4566 52.1261 32.9641L52.2083 32.5947L52.7838 30.3374H54.1815L54.7159 32.5947C54.7159 32.6768 54.757 32.7588 54.757 32.882C54.7981 33.0051 54.7981 33.1282 54.8392 33.2513C54.8803 33.3745 54.8803 33.5386 54.8803 33.6618C54.8803 33.7849 54.9214 33.908 54.9214 33.9901H54.9625C55.0036 33.7849 55.0447 33.4976 55.0858 33.1693C55.1681 32.7999 55.2092 32.5947 55.2092 32.4716L55.8258 30.3374H57.1001L55.7436 35.0572H54.3048Z" fill="#656565"/>
<path d="M60.1421 35.0571V33.005L59.8544 33.1692L59.3611 32.3483L60.1421 31.8969V28.9419H61.4576V31.1171L62.0742 30.7477L62.5675 31.5685L61.4576 32.2252V33.99H63.9652V35.0571H60.1421Z" fill="#656565"/>
<path d="M69.1448 32.6766C69.1448 33.4564 68.9392 34.031 68.5282 34.4824C68.1171 34.9339 67.5416 35.1391 66.8427 35.1391C66.3905 35.1391 65.9795 35.057 65.6506 34.8518C65.3217 34.6466 65.034 34.3593 64.8695 33.9899C64.7051 33.6206 64.5818 33.1691 64.5818 32.6766C64.5818 31.8968 64.7873 31.3222 65.1984 30.8708C65.6095 30.4604 66.185 30.2141 66.8838 30.2141C67.336 30.2141 67.7471 30.2962 68.076 30.5014C68.4048 30.7066 68.6926 30.9939 68.857 31.3633C69.0215 31.7326 69.1448 32.1841 69.1448 32.6766ZM65.8973 32.6766C65.8973 33.1281 65.9795 33.4974 66.1439 33.7437C66.3083 33.9899 66.555 34.1131 66.8838 34.1131C67.2127 34.1131 67.4594 33.9899 67.6238 33.7437C67.7882 33.4974 67.8293 33.1691 67.8293 32.6766C67.8293 32.2251 67.7471 31.8558 67.5827 31.6095C67.4183 31.3633 67.1716 31.2401 66.8427 31.2401C66.5139 31.2401 66.2672 31.3633 66.1028 31.5685C65.9795 31.8558 65.8973 32.2251 65.8973 32.6766Z" fill="#656565"/>
<path d="M71.6936 35.1392C71.1592 35.1392 70.707 34.934 70.3782 34.4825C70.0493 34.0721 69.8849 33.4565 69.8849 32.7178C69.8849 31.938 70.0493 31.3634 70.3782 30.9119C70.707 30.5015 71.1592 30.2553 71.6936 30.2553C72.2692 30.2553 72.7213 30.5015 73.0502 30.953H73.0913C73.0091 30.5836 73.0091 30.2963 73.0091 30.009V28.4905H74.2834V35.0571H73.2969L73.0913 34.4415H73.0502C72.7213 34.8929 72.2692 35.1392 71.6936 35.1392ZM72.1458 34.1132C72.4747 34.1132 72.7213 34.0311 72.8858 33.8259C73.0502 33.6207 73.1324 33.2923 73.1324 32.8409V32.7178C73.1324 32.2253 73.0502 31.8559 72.8858 31.6507C72.7213 31.4455 72.4747 31.3223 72.1047 31.3223C71.817 31.3223 71.6114 31.4455 71.447 31.6917C71.2826 31.938 71.2003 32.3073 71.2003 32.7588C71.2003 33.2102 71.2826 33.5796 71.447 33.7848C71.6114 33.99 71.8581 34.1132 72.1458 34.1132Z" fill="#656565"/>
<path d="M78.9287 35.0572H75.1879V34.3184L77.3666 31.3634H75.3112V30.3374H78.8465V31.1582L76.7089 34.0311H78.9287V35.0572Z" fill="#656565"/>
<path d="M79.7506 29.1061C79.7506 28.6957 79.9973 28.4905 80.4494 28.4905C80.9016 28.4905 81.1483 28.6957 81.1483 29.1061C81.1483 29.3113 81.1072 29.4755 80.9839 29.5576C80.8605 29.6807 80.6961 29.7217 80.4494 29.7217C79.9973 29.7628 79.7506 29.5576 79.7506 29.1061ZM81.1072 35.0571H79.8328V30.3373H81.1072V35.0571Z" fill="#656565"/>
</svg>
