<svg width="81" height="17" viewBox="0 0 81 17" fill="none" xmlns="http://www.w3.org/2000/svg">
<path d="M11.5559 6.32709C13.4649 8.81856 12.0045 11.6723 11.2981 12.7855C11.1946 12.9412 11.0554 13.0741 10.8906 13.1748C10.7256 13.2755 10.539 13.3417 10.3436 13.3685C8.95951 13.5894 5.51363 13.8369 3.66184 11.3453C1.83867 8.99526 1.91504 4.86048 2.07731 2.89028C2.0837 2.74349 2.12767 2.60021 2.2056 2.47223C2.28352 2.34424 2.39317 2.23522 2.52552 2.15413C2.65786 2.07304 2.80912 2.0222 2.96685 2.0058C3.12458 1.9894 3.28426 2.0079 3.43275 2.05979C5.485 2.60756 9.76132 3.97698 11.5559 6.32709Z" stroke="#793B0C" stroke-width="0.5" stroke-linecap="round" stroke-linejoin="round"/>
<path d="M5.12228 5.50543C7.30868 7.89023 9.22761 10.4744 10.8495 13.2183" stroke="#793B0C" stroke-width="0.5" stroke-linecap="round" stroke-linejoin="round"/>
<path d="M24.178 4.746V14.448L16.422 5.488L16.17 5.166L16.198 5.572V13.454H17.304V14H14.49V13.454H15.624V4.746H14.49V4.2H16.002L23.38 12.796L23.646 13.16L23.604 12.712V4.746H22.54V4.2H25.354V4.746H24.178ZM32.8818 14H31.3278V13.426C31.3278 13.314 31.3278 13.2113 31.3278 13.118C31.3278 13.0153 31.3278 12.9033 31.3278 12.782C31.2625 12.95 31.1598 13.1133 31.0198 13.272C30.8892 13.4213 30.7305 13.5567 30.5438 13.678C30.3478 13.8087 30.1238 13.9113 29.8718 13.986C29.6292 14.0607 29.3678 14.098 29.0878 14.098C28.6958 14.098 28.3318 14.028 27.9958 13.888C27.6692 13.748 27.3798 13.552 27.1278 13.3C26.8758 13.048 26.6798 12.7587 26.5398 12.432C26.3998 12.1053 26.3298 11.7507 26.3298 11.368C26.3298 11.004 26.3998 10.654 26.5398 10.318C26.6798 9.982 26.8758 9.688 27.1278 9.436C27.3798 9.19333 27.6692 9.002 27.9958 8.862C28.3318 8.71267 28.6958 8.638 29.0878 8.638C29.6385 8.638 30.1098 8.77333 30.5018 9.044C30.8938 9.30533 31.1692 9.618 31.3278 9.982C31.3278 9.786 31.3325 9.58533 31.3418 9.38C31.3512 9.16533 31.3652 8.95533 31.3838 8.75H31.8458V13.454H32.8818V14ZM29.0878 9.198C28.7705 9.198 28.4765 9.254 28.2058 9.366C27.9352 9.478 27.7065 9.63667 27.5198 9.842C27.3238 10.038 27.1698 10.2667 27.0578 10.528C26.9552 10.7893 26.9038 11.0693 26.9038 11.368C26.9038 11.6853 26.9645 11.9793 27.0858 12.25C27.2072 12.5207 27.3752 12.754 27.5898 12.95C27.7858 13.1367 28.0098 13.2813 28.2618 13.384C28.5138 13.4867 28.7892 13.538 29.0878 13.538C29.3865 13.538 29.6665 13.4867 29.9278 13.384C30.1892 13.272 30.4178 13.118 30.6138 12.922C30.8192 12.726 30.9778 12.4973 31.0898 12.236C31.2112 11.9653 31.2718 11.676 31.2718 11.368C31.2718 11.06 31.2112 10.7753 31.0898 10.514C30.9778 10.2433 30.8238 10.01 30.6278 9.814C30.4225 9.618 30.1892 9.46867 29.9278 9.366C29.6665 9.254 29.3865 9.198 29.0878 9.198ZM36.803 14H35.081V9.31H33.863V8.75H35.081V5.334H35.655V8.75H37.279V9.31H35.655V13.454H36.803V14ZM43.2914 12.642C43.1047 13.09 42.8014 13.4493 42.3814 13.72C41.9707 13.9813 41.5087 14.112 40.9954 14.112C40.4821 14.112 40.0761 13.9673 39.7774 13.678C39.4787 13.3887 39.3201 13.0107 39.3014 12.544V9.296H38.2654V8.75H39.8754V12.39C39.8941 12.698 40.0014 12.964 40.1974 13.188C40.4027 13.4027 40.7014 13.5193 41.0934 13.538C41.3827 13.538 41.6534 13.4913 41.9054 13.398C42.1667 13.3047 42.4001 13.1693 42.6054 12.992C42.8014 12.8333 42.9554 12.6373 43.0674 12.404C43.1887 12.1613 43.2494 11.9 43.2494 11.62V9.296H42.2134V8.75H43.8234V13.496H44.8174V14H43.3194L43.2914 13.272V12.642ZM48.5006 14H45.7986V13.454H46.8906V9.296H45.8826V8.75H47.3526L47.3946 9.492C47.4039 9.65067 47.4086 9.75333 47.4086 9.8C47.4086 9.84667 47.4133 9.94933 47.4226 10.108C47.5253 9.87467 47.6559 9.66933 47.8146 9.492C47.9826 9.30533 48.1693 9.15133 48.3746 9.03C48.5706 8.90867 48.7713 8.81533 48.9766 8.75C49.1913 8.68467 49.4059 8.64733 49.6206 8.638L49.5926 9.212C49.3126 9.212 49.0466 9.25867 48.7946 9.352C48.5519 9.436 48.3373 9.55733 48.1506 9.716C47.9359 9.87467 47.7679 10.08 47.6466 10.332C47.5253 10.5747 47.4646 10.8407 47.4646 11.13V13.454H48.5006V14ZM53.3414 9.198C52.9868 9.198 52.6601 9.27267 52.3614 9.422C52.0721 9.57133 51.8294 9.772 51.6334 10.024C51.4468 10.2667 51.3161 10.542 51.2414 10.85C51.1668 11.1487 51.1621 11.4567 51.2274 11.774C51.8621 11.522 52.4921 11.2747 53.1174 11.032C53.7521 10.78 54.3868 10.528 55.0214 10.276C54.8534 9.95867 54.6201 9.702 54.3214 9.506C54.0321 9.30067 53.7054 9.198 53.3414 9.198ZM55.1754 13.37C54.9328 13.594 54.6574 13.7713 54.3494 13.902C54.0414 14.0327 53.7054 14.098 53.3414 14.098C52.9588 14.098 52.5994 14.028 52.2634 13.888C51.9368 13.748 51.6474 13.552 51.3954 13.3C51.1434 13.048 50.9474 12.7587 50.8074 12.432C50.6674 12.1053 50.5974 11.7507 50.5974 11.368C50.5974 10.9947 50.6674 10.64 50.8074 10.304C50.9474 9.968 51.1434 9.67867 51.3954 9.436C51.6474 9.19333 51.9368 9.002 52.2634 8.862C52.5994 8.71267 52.9588 8.638 53.3414 8.638C53.6308 8.638 53.9061 8.68933 54.1674 8.792C54.4288 8.88533 54.6621 9.02533 54.8674 9.212C55.0634 9.38 55.2361 9.58533 55.3854 9.828C55.5348 10.0613 55.6561 10.318 55.7494 10.598C55.0214 10.8873 54.2934 11.172 53.5654 11.452C52.8468 11.732 52.1234 12.0213 51.3954 12.32C51.5634 12.684 51.8201 12.978 52.1654 13.202C52.5108 13.426 52.9028 13.538 53.3414 13.538C53.6308 13.538 53.9014 13.4867 54.1534 13.384C54.4054 13.2813 54.6294 13.1367 54.8254 12.95L55.1754 13.37ZM60.5151 14.112C60.1324 14.112 59.7731 14.042 59.4371 13.902C59.1011 13.7527 58.8118 13.552 58.5691 13.3C58.3171 13.0573 58.1211 12.7727 57.9811 12.446C57.8411 12.1193 57.7711 11.7647 57.7711 11.382C57.7711 11.046 57.8271 10.7287 57.9391 10.43C58.0511 10.122 58.2098 9.84667 58.4151 9.604C58.6204 9.37067 58.8584 9.17467 59.1291 9.016C59.4091 8.85733 59.7124 8.75 60.0391 8.694L59.0451 7.056C58.8864 6.79467 58.7698 6.52867 58.6951 6.258C58.6298 5.978 58.6111 5.70733 58.6391 5.446C58.6671 5.17533 58.7511 4.91867 58.8911 4.676C59.0311 4.424 59.2318 4.19533 59.4931 3.99C59.7264 3.81267 59.9784 3.69133 60.2491 3.626C60.5198 3.55133 60.8044 3.528 61.1031 3.556C61.4018 3.584 61.6818 3.654 61.9431 3.766C62.2138 3.878 62.4471 3.99467 62.6431 4.116L62.4051 4.592C62.2278 4.48933 62.0224 4.38667 61.7891 4.284C61.5651 4.18133 61.3411 4.116 61.1171 4.088C60.8931 4.06 60.6784 4.074 60.4731 4.13C60.2771 4.17667 60.0904 4.27 59.9131 4.41C59.6984 4.578 59.5351 4.76 59.4231 4.956C59.3111 5.152 59.2411 5.348 59.2131 5.544C59.1851 5.768 59.1991 5.99667 59.2551 6.23C59.3204 6.454 59.4184 6.67333 59.5491 6.888L62.4891 11.676C62.5544 11.5173 62.6058 11.3587 62.6431 11.2C62.6804 11.0413 62.6991 10.8733 62.6991 10.696V8.75H64.7011V9.31H63.2731V10.486C63.2731 10.654 63.2731 10.8173 63.2731 10.976C63.2824 11.1347 63.2824 11.2933 63.2731 11.452C63.2544 11.6293 63.2218 11.8067 63.1751 11.984C63.1378 12.152 63.0818 12.32 63.0071 12.488L63.9171 13.958L63.4691 14.266L62.7131 13.048C62.4611 13.3653 62.1438 13.622 61.7611 13.818C61.3878 14.014 60.9724 14.112 60.5151 14.112ZM60.5151 13.552C60.9164 13.552 61.2804 13.4587 61.6071 13.272C61.9338 13.076 62.1904 12.8193 62.3771 12.502L60.3611 9.226C60.0718 9.24467 59.8011 9.31467 59.5491 9.436C59.2971 9.55733 59.0778 9.71133 58.8911 9.898C58.7138 10.094 58.5784 10.318 58.4851 10.57C58.3918 10.822 58.3451 11.0927 58.3451 11.382C58.3451 11.69 58.4011 11.9747 58.5131 12.236C58.6251 12.4973 58.7791 12.726 58.9751 12.922C59.1711 13.118 59.3998 13.272 59.6611 13.384C59.9224 13.496 60.2071 13.552 60.5151 13.552ZM73.2998 13.272C73.0105 13.552 72.6652 13.762 72.2638 13.902C71.8625 14.042 71.4285 14.112 70.9618 14.112C70.4858 14.112 70.0472 14.042 69.6458 13.902C69.2445 13.762 68.8945 13.552 68.5958 13.272C68.3065 13.0013 68.0778 12.6607 67.9098 12.25C67.7418 11.8393 67.6578 11.368 67.6578 10.836V4.746H66.5798V4.2H69.3938V4.746H68.2318V10.794C68.2318 11.242 68.2972 11.6387 68.4278 11.984C68.5678 12.32 68.7592 12.6047 69.0018 12.838C69.2352 13.0807 69.5198 13.2627 69.8558 13.384C70.1918 13.5053 70.5605 13.566 70.9618 13.566C71.3445 13.566 71.7038 13.5053 72.0398 13.384C72.3758 13.2627 72.6652 13.0807 72.9078 12.838C73.1505 12.6047 73.3418 12.32 73.4818 11.984C73.6218 11.6387 73.6918 11.242 73.6918 10.794V4.746H72.5298V4.2H75.3438V4.746H74.2658V10.836C74.2658 11.368 74.1772 11.8393 73.9998 12.25C73.8318 12.6607 73.5985 13.0013 73.2998 13.272ZM79.5339 13.552C79.3939 13.72 79.2119 13.8553 78.9879 13.958C78.7732 14.0607 78.5072 14.112 78.1899 14.112C77.8912 14.112 77.5972 14.0747 77.3079 14C77.0279 13.9347 76.7806 13.7993 76.5659 13.594V12.572H77.0839V13.286C77.2612 13.398 77.4432 13.4727 77.6299 13.51C77.8166 13.538 78.0126 13.552 78.2179 13.552C78.3579 13.552 78.4932 13.5333 78.6239 13.496C78.7546 13.4493 78.8759 13.384 78.9879 13.3C79.0906 13.216 79.1699 13.118 79.2259 13.006C79.2912 12.8847 79.3239 12.74 79.3239 12.572C79.3239 12.3293 79.2632 12.1427 79.1419 12.012C79.0206 11.8813 78.8619 11.7787 78.6659 11.704C78.4792 11.62 78.2739 11.5453 78.0499 11.48C77.8259 11.4147 77.6159 11.3353 77.4199 11.242C77.2239 11.1487 77.0606 11.018 76.9299 10.85C76.8086 10.6727 76.7479 10.43 76.7479 10.122C76.7479 9.87 76.7899 9.65533 76.8739 9.478C76.9672 9.30067 77.0886 9.15133 77.2379 9.03C77.3872 8.90867 77.5599 8.82 77.7559 8.764C77.9519 8.69867 78.1339 8.666 78.3019 8.666C78.4232 8.666 78.5399 8.67533 78.6519 8.694C78.7639 8.70333 78.8946 8.73133 79.0439 8.778C79.1652 8.82467 79.2819 8.88067 79.3939 8.946C79.5059 9.002 79.6086 9.072 79.7019 9.156V10.178H79.1699V9.45C79.0392 9.37533 78.9039 9.31933 78.7639 9.282C78.6239 9.24467 78.4746 9.226 78.3159 9.226C78.1946 9.226 78.0686 9.24467 77.9379 9.282C77.8166 9.31 77.7092 9.35667 77.6159 9.422C77.5319 9.49667 77.4619 9.59 77.4059 9.702C77.3499 9.814 77.3219 9.94933 77.3219 10.108C77.3219 10.3133 77.3872 10.4767 77.5179 10.598C77.6579 10.71 77.8212 10.8033 78.0079 10.878C78.2039 10.962 78.4092 11.0413 78.6239 11.116C78.8479 11.1813 79.0579 11.27 79.2539 11.382C79.4406 11.494 79.5946 11.6387 79.7159 11.816C79.8466 11.9933 79.9119 12.2313 79.9119 12.53C79.9119 12.698 79.8792 12.8753 79.8139 13.062C79.7579 13.2393 79.6646 13.4027 79.5339 13.552Z" fill="#AA5F24"/>
</svg>
