<svg width="50" height="22" viewBox="0 0 50 22" fill="none" xmlns="http://www.w3.org/2000/svg">
<g clip-path="url(#clip0_1_4892)">
<path d="M40.0709 16.8333C40.0709 17.167 40.0709 17.4554 40.0709 17.7433C40.0695 18.6551 40.0901 19.5679 40.0609 20.4789C40.0225 21.6692 38.7749 22.3852 37.7719 21.8047C37.2197 21.4851 36.9614 20.9745 36.9609 20.3241C36.9596 18.3743 36.9605 16.4246 36.9605 14.4748C36.9605 13.4058 36.9573 12.3362 36.9614 11.2672C36.9737 8.06481 39.0177 5.39859 42.0496 4.7685C46.0043 3.94678 49.0024 6.40769 49.7988 9.57563C50.7379 13.3128 48.2988 17.1509 44.6124 17.7149C43.0216 17.9585 41.5111 17.7206 40.0718 16.8333H40.0709ZM43.3561 14.5626C45.1705 14.5649 46.6313 13.0612 46.639 11.1837C46.6468 9.30141 45.1756 7.76888 43.3611 7.76935C41.5559 7.76935 40.0846 9.28394 40.0718 11.1549C40.059 13.0272 41.5367 14.5602 43.3561 14.5626Z" fill="#BF0519"/>
<path d="M16.1549 6.52804C16.1549 4.90867 16.1508 3.2893 16.1568 1.66994C16.1604 0.724558 16.8513 0.00761794 17.733 0.0165856C18.5704 0.0246093 19.2467 0.703319 19.259 1.59253C19.2759 2.81072 19.2645 4.02937 19.2654 5.24803C19.2654 5.47017 19.3571 5.52933 19.5405 5.42549C23.346 3.27184 28.0979 5.67281 28.7915 10.1005C29.3628 13.7479 27.0036 17.125 23.4833 17.6989C20.0275 18.2624 16.7172 15.734 16.2302 12.1602C16.1805 11.7935 16.1545 11.4263 16.1545 11.0562C16.1545 9.54683 16.1545 8.03744 16.1545 6.52804H16.1549ZM22.5086 14.5626C24.3175 14.5706 25.792 13.0655 25.8084 11.1936C25.8248 9.32312 24.3531 7.78493 22.5328 7.76982C20.7339 7.75472 19.2508 9.27497 19.2407 11.1454C19.2302 13.0362 20.6828 14.555 22.5086 14.5631V14.5626Z" fill="#BF0519"/>
<path d="M0 4.62785H0.282019C3.9615 4.62785 7.64099 4.63021 11.3205 4.62171C11.5454 4.62124 11.5888 4.68354 11.5883 4.90584C11.581 8.76571 11.5833 12.626 11.5833 16.4859V16.787C7.71491 12.7266 3.88027 8.70105 0 4.62785Z" fill="#BF0519"/>
<path d="M30.4996 9.3925C30.4996 8.29986 30.5005 7.20675 30.4996 6.11412C30.4987 5.2183 31.201 4.49428 32.0667 4.50041C32.9356 4.50655 33.6137 5.25039 33.6114 6.16603C33.6055 8.25739 33.5849 10.3492 33.6246 12.4401C33.6328 12.8804 33.6958 13.3161 33.8058 13.7432C33.9254 14.2077 34.1513 14.573 34.5738 14.8278C35.1388 15.1686 35.3829 15.7237 35.2944 16.3892C35.2018 17.083 34.7993 17.5389 34.1449 17.7348C33.7474 17.8537 33.3631 17.7909 32.9981 17.5918C31.9143 17.0004 31.2567 16.0545 30.8925 14.8698C30.6091 13.9481 30.5138 12.997 30.511 12.0342C30.5083 11.1535 30.5106 10.2727 30.5106 9.3925C30.5069 9.3925 30.5037 9.3925 30.5001 9.3925H30.4996Z" fill="#BF0519"/>
<path d="M32.0667 0.00998071C33.0141 0.0123406 33.7693 0.79347 33.7725 1.77472C33.7752 2.76588 33.0141 3.55834 32.0594 3.55739C31.0992 3.55645 30.3399 2.77202 30.3394 1.78038C30.3385 0.796774 31.1088 0.0076208 32.0667 0.00998071Z" fill="#BF0519"/>
</g>
<defs>
<clipPath id="clip0_1_4892">
<rect width="50" height="22" fill="white" transform="translate(0 0.00997925)"/>
</clipPath>
</defs>
</svg>
