<svg width="18" height="18" viewBox="0 0 18 18" fill="none" xmlns="http://www.w3.org/2000/svg">
<path d="M15.75 9.00998C15.75 5.28342 12.7266 2.25998 9 2.25998V15.76C12.7266 15.76 15.75 12.7365 15.75 9.00998ZM0 9.00998C0 6.62303 0.948212 4.33385 2.63604 2.64602C4.32387 0.958191 6.61305 0.00997925 9 0.00997925C11.3869 0.00997925 13.6761 0.958191 15.364 2.64602C17.0518 4.33385 18 6.62303 18 9.00998C18 11.3969 17.0518 13.6861 15.364 15.3739C13.6761 17.0618 11.3869 18.01 9 18.01C6.61305 18.01 4.32387 17.0618 2.63604 15.3739C0.948212 13.6861 0 11.3969 0 9.00998Z" fill="#FFF"/>
</svg>
