<svg width="18" height="14" viewBox="0 0 18 14" fill="none" xmlns="http://www.w3.org/2000/svg">
<g clip-path="url(#clip0_1_4901)">
<path d="M2.7 2.19748C2.7 1.84938 2.84223 1.51554 3.09541 1.2694C3.34858 1.02326 3.69196 0.884979 4.05 0.884979C4.40804 0.884979 4.75142 1.02326 5.00459 1.2694C5.25777 1.51554 5.4 1.84938 5.4 2.19748C5.4 2.54558 5.25777 2.87942 5.00459 3.12556C4.75142 3.3717 4.40804 3.50998 4.05 3.50998C3.69196 3.50998 3.34858 3.3717 3.09541 3.12556C2.84223 2.87942 2.7 2.54558 2.7 2.19748ZM6.3 2.19748C6.3 1.61732 6.06295 1.06092 5.64099 0.650683C5.21903 0.240447 4.64674 0.00997925 4.05 0.00997925C3.45326 0.00997925 2.88097 0.240447 2.45901 0.650683C2.03705 1.06092 1.8 1.61732 1.8 2.19748C1.8 2.77764 2.03705 3.33404 2.45901 3.74428C2.88097 4.15451 3.45326 4.38498 4.05 4.38498C4.64674 4.38498 5.21903 4.15451 5.64099 3.74428C6.06295 3.33404 6.3 2.77764 6.3 2.19748ZM9 4.38498C9.47739 4.38498 9.93523 4.56935 10.2728 4.89754C10.6104 5.22573 10.8 5.67085 10.8 6.13498C10.8 6.59911 10.6104 7.04423 10.2728 7.37242C9.93523 7.7006 9.47739 7.88498 9 7.88498C8.52261 7.88498 8.06477 7.7006 7.72721 7.37242C7.38964 7.04423 7.2 6.59911 7.2 6.13498C7.2 5.67085 7.38964 5.22573 7.72721 4.89754C8.06477 4.56935 8.52261 4.38498 9 4.38498ZM9 8.75998C9.35457 8.75998 9.70567 8.69208 10.0332 8.56016C10.3608 8.42824 10.6585 8.23489 10.9092 7.99113C11.1599 7.74738 11.3588 7.458 11.4945 7.13952C11.6302 6.82104 11.7 6.4797 11.7 6.13498C11.7 5.79026 11.6302 5.44891 11.4945 5.13043C11.3588 4.81196 11.1599 4.52258 10.9092 4.27882C10.6585 4.03507 10.3608 3.84171 10.0332 3.7098C9.70567 3.57788 9.35457 3.50998 9 3.50998C8.64543 3.50998 8.29433 3.57788 7.96675 3.7098C7.63918 3.84171 7.34153 4.03507 7.09081 4.27882C6.84009 4.52258 6.64121 4.81196 6.50552 5.13043C6.36984 5.44891 6.3 5.79026 6.3 6.13498C6.3 6.4797 6.36984 6.82104 6.50552 7.13952C6.64121 7.458 6.84009 7.74738 7.09081 7.99113C7.34153 8.23489 7.63918 8.42824 7.96675 8.56016C8.29433 8.69208 8.64543 8.75998 9 8.75998ZM7.34906 10.51H10.6509C12.1753 10.51 13.4184 11.6721 13.4972 13.135H4.50281C4.58156 11.6721 5.82469 10.51 7.34906 10.51ZM7.34906 9.63498C5.27906 9.63498 3.6 11.2674 3.6 13.2799C3.6 13.6819 3.93469 14.01 4.35094 14.01H13.6491C14.0625 14.01 14.4 13.6846 14.4 13.2799C14.4 11.2674 12.7209 9.63498 10.6509 9.63498H7.34906ZM14.4 0.884979C14.758 0.884979 15.1014 1.02326 15.3546 1.2694C15.6078 1.51554 15.75 1.84938 15.75 2.19748C15.75 2.54558 15.6078 2.87942 15.3546 3.12556C15.1014 3.3717 14.758 3.50998 14.4 3.50998C14.042 3.50998 13.6986 3.3717 13.4454 3.12556C13.1922 2.87942 13.05 2.54558 13.05 2.19748C13.05 1.84938 13.1922 1.51554 13.4454 1.2694C13.6986 1.02326 14.042 0.884979 14.4 0.884979ZM14.4 4.38498C14.9967 4.38498 15.569 4.15451 15.991 3.74428C16.4129 3.33404 16.65 2.77764 16.65 2.19748C16.65 1.61732 16.4129 1.06092 15.991 0.650683C15.569 0.240447 14.9967 0.00997925 14.4 0.00997925C13.8033 0.00997925 13.231 0.240447 12.809 0.650683C12.3871 1.06092 12.15 1.61732 12.15 2.19748C12.15 2.77764 12.3871 3.33404 12.809 3.74428C13.231 4.15451 13.8033 4.38498 14.4 4.38498ZM14.85 6.13498C16.0931 6.13498 17.1 7.11389 17.1 8.32248C17.1 8.5631 17.3025 8.75998 17.55 8.75998C17.7975 8.75998 18 8.5631 18 8.32248C18 6.6299 16.5909 5.25998 14.85 5.25998H12.4875C12.5606 5.53889 12.6 5.8342 12.6 6.13498H14.85ZM5.4 6.13498C5.4 5.8342 5.43937 5.53889 5.5125 5.25998H3.15C1.40906 5.25998 0 6.6299 0 8.32248C0 8.5631 0.2025 8.75998 0.45 8.75998C0.6975 8.75998 0.9 8.5631 0.9 8.32248C0.9 7.11389 1.90687 6.13498 3.15 6.13498H5.4Z" fill="#54A9BA"/>
</g>
<defs>
<clipPath id="clip0_1_4901">
<rect width="18" height="14" fill="#54A9BA" transform="translate(0 0.00997925)"/>
</clipPath>
</defs>
</svg>
