<svg width="10" height="12" viewBox="0 0 10 12" fill="none" xmlns="http://www.w3.org/2000/svg">
<g clip-path="url(#clip0_1_4905)">
<path d="M7.14286 3.00998C7.14286 2.7145 7.08743 2.42192 6.97974 2.14894C6.87205 1.87596 6.71421 1.62792 6.51523 1.41899C6.31625 1.21006 6.08002 1.04432 5.82004 0.93125C5.56005 0.818177 5.2814 0.759979 5 0.759979C4.7186 0.759979 4.43995 0.818177 4.17996 0.93125C3.91998 1.04432 3.68375 1.21006 3.48477 1.41899C3.28579 1.62792 3.12795 1.87596 3.02026 2.14894C2.91257 2.42192 2.85714 2.7145 2.85714 3.00998C2.85714 3.30545 2.91257 3.59803 3.02026 3.87102C3.12795 4.144 3.28579 4.39204 3.48477 4.60097C3.68375 4.8099 3.91998 4.97564 4.17996 5.08871C4.43995 5.20178 4.7186 5.25998 5 5.25998C5.2814 5.25998 5.56005 5.20178 5.82004 5.08871C6.08002 4.97564 6.31625 4.8099 6.51523 4.60097C6.71421 4.39204 6.87205 4.144 6.97974 3.87102C7.08743 3.59803 7.14286 3.30545 7.14286 3.00998ZM2.14286 3.00998C2.14286 2.21433 2.44388 1.45127 2.97969 0.888659C3.51551 0.32605 4.24224 0.00997925 5 0.00997925C5.75776 0.00997925 6.48449 0.32605 7.02031 0.888659C7.55612 1.45127 7.85714 2.21433 7.85714 3.00998C7.85714 3.80563 7.55612 4.56869 7.02031 5.1313C6.48449 5.69391 5.75776 6.00998 5 6.00998C4.24224 6.00998 3.51551 5.69391 2.97969 5.1313C2.44388 4.56869 2.14286 3.80563 2.14286 3.00998ZM0.714286 11.26H9.28571C9.25893 9.39201 7.80804 7.88498 6.02009 7.88498H3.97991C2.1942 7.88498 0.743304 9.39201 0.714286 11.26ZM0 11.3139C0 9.00529 1.78125 7.13498 3.97991 7.13498H6.02009C8.21875 7.13498 10 9.00529 10 11.3139C10 11.6983 9.70312 12.01 9.33705 12.01H0.662946C0.296875 12.01 0 11.6983 0 11.3139Z" fill="#B1E1EA"/>
</g>
<defs>
<clipPath id="clip0_1_4905">
<rect width="10" height="12" fill="white" transform="translate(0 0.00997925)"/>
</clipPath>
</defs>
</svg>
