<svg width="508" height="69" viewBox="0 0 508 69" fill="none" xmlns="http://www.w3.org/2000/svg">
<path d="M10.0934 55.0878C10.514 54.6679 10.9345 54.416 11.3551 54.416C11.7757 54.416 12.1962 54.5839 12.6168 55.0038C13.0373 55.4237 13.2056 55.8436 13.2056 56.2634C13.2056 56.6833 12.9532 57.1032 12.5327 57.5231C12.1121 57.9429 11.6915 58.1949 11.271 58.1949C10.8504 58.1949 10.4299 58.0269 10.0093 57.607C9.58875 57.1872 9.42053 56.7673 9.42053 56.3474C9.42053 55.9275 9.67287 55.5076 10.0934 55.0878ZM12.028 56.9352C12.2803 56.6833 12.4485 56.3474 12.5327 56.0955C12.5327 55.8436 12.4485 55.5916 12.2803 55.4237C11.8598 55.0038 11.3551 55.0878 10.7663 55.6756C10.1775 56.2634 10.0934 56.7673 10.514 57.1872C10.7663 57.4391 10.9345 57.5231 11.1869 57.4391C11.4392 57.3551 11.6915 57.2711 12.028 56.9352Z" fill="black"/>
<path d="M8.6635 50.3012L9.16817 50.973L8.49528 52.6525L8.91584 52.7365L9.92518 51.9807L10.3457 52.5685L7.48594 54.7519L7.06538 54.164L8.41117 53.1563H7.9065L6.30838 53.0724L5.80371 52.4845L7.82239 52.5685L8.6635 50.3012Z" fill="black"/>
<path d="M6.47652 49.2095L7.65408 48.5377L7.99052 49.2095L4.79428 50.973L4.28961 50.0493C4.03728 49.6294 3.95317 49.2935 4.03728 48.9576C4.12139 48.7057 4.28961 48.4537 4.54195 48.2858C4.71017 48.2018 4.96251 48.1178 5.13073 48.2018C5.29895 48.2018 5.55129 48.2858 5.71951 48.4537C6.14007 47.614 6.47651 47.0261 6.56063 46.7742L6.98118 47.53L6.22418 48.9576L6.47652 49.2095ZM5.88773 49.5454L5.80362 49.2935C5.71951 49.0415 5.55129 48.9576 5.46718 48.8736C5.38306 48.7896 5.21484 48.7896 5.04662 48.8736C4.8784 48.9576 4.79428 49.0415 4.79428 49.2095C4.79428 49.3774 4.87839 49.5454 4.96251 49.7133L5.04662 49.9653L5.88773 49.5454Z" fill="black"/>
<path d="M5.38302 43.5832L6.14002 45.5146L2.77556 46.8582L2.01855 44.9268L2.60734 44.6748L3.11201 45.9345L3.86901 45.6825L3.36434 44.4229L3.95312 44.171L4.37368 45.3466L5.2148 45.0107L4.71013 43.7511L5.38302 43.5832ZM6.14002 43.9191C6.22413 43.9191 6.22413 43.8351 6.22413 43.8351C6.22413 43.7511 6.22413 43.7511 6.22413 43.6671C6.22413 43.5832 6.14002 43.4992 6.05591 43.4152L6.47647 43.2473C6.56058 43.3312 6.64469 43.4992 6.64469 43.5832C6.7288 43.7511 6.7288 43.9191 6.64469 44.087C6.56058 44.255 6.47647 44.3389 6.30824 44.4229C6.22413 44.4229 6.14002 44.5069 5.9718 44.4229C5.88769 44.4229 5.71946 44.3389 5.55124 44.255L5.38302 43.8351C5.55124 43.9191 5.63535 43.9191 5.71946 44.003C5.80357 44.087 6.05591 44.003 6.14002 43.9191Z" fill="black"/>
<path d="M2.60738 41.2319L2.27093 39.8882L4.12138 39.4684C4.28961 39.6363 4.37372 39.8882 4.45783 40.0562C4.54194 40.2242 4.62605 40.4761 4.62605 40.644C4.79428 41.1479 4.71016 41.6517 4.45783 41.9876C4.20549 42.3235 3.78494 42.5755 3.19616 42.7434C2.60738 42.9114 2.18682 42.8274 1.76626 42.5755C1.3457 42.3235 1.09337 41.9037 0.925144 41.3158C0.841033 40.9799 0.841033 40.5601 0.925144 40.2242L1.59804 40.3081C1.51392 40.5601 1.51392 40.896 1.59804 41.1479C1.68215 41.4838 1.85037 41.7357 2.10271 41.8197C2.35504 41.9876 2.69149 41.9876 3.02793 41.9037C3.44849 41.8197 3.70083 41.6517 3.86905 41.4838C4.03727 41.3158 4.03727 41.0639 4.03727 40.728C4.03727 40.5601 3.95316 40.3921 3.86905 40.3081L3.11204 40.4761L3.28027 41.1479L2.60738 41.2319Z" fill="black"/>
<path d="M1.85047 34.6818C2.43925 34.5978 2.94392 34.7658 3.28037 35.0177C3.61682 35.2696 3.78504 35.6895 3.86915 36.2773C3.95326 36.8651 3.78504 37.285 3.53271 37.6209C3.19626 37.9568 2.7757 38.1248 2.18692 38.2087C1.59814 38.2927 1.09347 38.1248 0.757023 37.8728C0.420577 37.6209 0.252354 37.201 0.168242 36.6132C0.0841306 36.0254 0.252354 35.6055 0.504689 35.2696C0.841135 34.8497 1.26169 34.6818 1.85047 34.6818ZM2.10281 37.285C2.52337 37.285 2.7757 37.1171 3.02804 36.9491C3.19626 36.7812 3.28037 36.5292 3.28037 36.2773C3.19626 35.6895 2.7757 35.4376 2.0187 35.4376C1.17758 35.5215 0.841135 35.8574 0.841135 36.4453C0.841135 36.7812 1.00936 36.9491 1.17758 37.1171C1.3458 37.285 1.68225 37.285 2.10281 37.285Z" fill="black"/>
<path d="M3.95324 29.4753L3.86913 30.3151L1.93457 30.651C1.85045 30.651 1.76634 30.651 1.51401 30.7349C1.26167 30.7349 1.17756 30.7349 1.09345 30.7349C1.17756 30.7349 1.34579 30.8189 1.51401 30.8189C1.68223 30.9029 1.85045 30.9029 1.93457 30.9869L3.78502 31.6587L3.70091 32.4984L0 33.0863L0.0841119 32.3305L2.10279 32.0786C2.43924 31.9946 2.77568 31.9946 3.02802 31.9946C2.94391 31.9946 2.77568 31.9106 2.60746 31.9106C2.43924 31.8266 2.27101 31.8266 2.1869 31.7427L0.252335 31.0709L0.336446 30.3151L2.35512 29.9792C2.43924 29.9792 2.60746 29.9792 2.77568 29.8952C2.9439 29.8952 3.11213 29.8952 3.28035 29.8952C3.11213 29.8952 3.02802 29.8112 2.77568 29.8112C2.60746 29.7272 2.43924 29.7272 2.35512 29.6433L0.420558 28.9715L0.50467 28.2157L3.95324 29.4753Z" fill="black"/>
<path d="M4.87853 25.1926H3.9533L3.61685 26.4522L4.37386 26.9561L4.20563 27.7958L1.09351 25.6125L1.34584 24.6887L5.13086 24.3528L4.87853 25.1926ZM3.36452 25.2766C2.5234 25.2766 2.10284 25.3605 2.01873 25.3605C1.93462 25.3605 1.85051 25.3605 1.7664 25.3605C1.93462 25.4445 2.43929 25.7804 3.19629 26.2003L3.36452 25.2766Z" fill="black"/>
<path d="M6.39241 21.1618L3.11206 19.6502L3.44851 18.9784L6.72886 20.49L6.39241 21.1618Z" fill="black"/>
<path d="M8.7477 16.963L7.31781 19.2303L6.89725 18.9784L5.71969 16.2072L4.87857 17.6348L4.3739 17.2989L5.71969 15.1155L6.14024 15.3675L7.40192 18.1386L8.32714 16.6271L8.7477 16.963Z" fill="black"/>
<path d="M6.81311 13.52L7.486 12.6803C7.82245 12.2604 8.07478 12.0085 8.32712 11.9245C8.57945 11.8405 8.83179 11.9245 9.08412 12.0924C9.25234 12.2604 9.33646 12.3444 9.42057 12.5123C9.50468 12.6803 9.42057 12.8482 9.33646 13.0162C9.50468 12.8482 9.6729 12.7642 9.84113 12.8482C10.0094 12.9322 10.1776 12.9322 10.3458 13.1001C10.5981 13.2681 10.7664 13.52 10.6822 13.8559C10.5981 14.1918 10.514 14.4437 10.2617 14.7796L9.42057 15.7873L6.81311 13.52ZM8.41123 13.8559L8.66356 13.52C8.83179 13.3521 8.83179 13.1841 8.83179 13.1001C8.83179 13.0162 8.74768 12.8482 8.66356 12.7642C8.57945 12.6803 8.41123 12.6803 8.32712 12.6803C8.24301 12.6803 8.07478 12.8482 7.99067 13.0162L7.73834 13.3521L8.41123 13.8559ZM8.83179 14.1918L9.58879 14.7796L9.92524 14.3598C10.0935 14.1918 10.0935 14.0239 10.0935 13.9399C10.0935 13.7719 10.0093 13.688 9.92524 13.604C9.6729 13.436 9.42057 13.52 9.16823 13.8559L8.83179 14.1918Z" fill="black"/>
<path d="M13.9625 11.0847L13.2055 10.6649L12.2803 11.5886L12.7008 12.4283L12.112 13.0162L10.598 9.48921L11.2709 8.81741L14.6354 10.5809L13.9625 11.0847ZM12.6167 10.329C11.9438 9.90908 11.5232 9.74113 11.4391 9.65716C11.355 9.57318 11.2709 9.57318 11.1868 9.48921C11.2709 9.65716 11.5232 10.161 11.9438 10.9168L12.6167 10.329Z" fill="black"/>
<path d="M18.168 5.12249C18.3362 5.45839 18.4203 5.7943 18.3362 6.04622C18.2521 6.38212 17.9998 6.63405 17.5792 6.802L17.3269 6.96995L17.9998 8.06163L17.3269 8.4815L15.4764 5.45839L16.4858 4.87057C16.8222 4.61864 17.1587 4.53467 17.4951 4.61864C17.7475 4.61864 17.9998 4.78659 18.168 5.12249ZM16.9904 6.4661L17.2428 6.29815C17.411 6.21417 17.5792 6.04622 17.6633 5.87827C17.7475 5.71032 17.6633 5.62634 17.5792 5.45839C17.4951 5.29044 17.411 5.20647 17.2428 5.20647C17.0746 5.20647 16.9904 5.20647 16.8222 5.37442L16.4858 5.54237L16.9904 6.4661Z" fill="black"/>
<path d="M20.7756 6.55007L19.2616 3.27503L19.9345 2.93913L21.4485 6.21417L20.7756 6.55007Z" fill="black"/>
<path d="M25.0653 4.87056L23.1307 5.54236L21.9531 2.18335L23.8877 1.51155L24.0559 2.09938L22.7942 2.51925L23.0466 3.27503L24.2241 2.85515L24.3924 3.44298L23.2989 3.77888L23.6354 4.61864L24.897 4.19876L25.0653 4.87056Z" fill="black"/>
<path d="M26.5793 4.45069L25.8223 0.923727L26.5793 0.755775L27.168 3.69491L28.5979 3.35901L28.7662 3.94684L26.5793 4.45069Z" fill="black"/>
<path d="M32.2989 3.61094L30.2802 3.77889L29.9437 0.16795L32.0465 0L32.1306 0.587827L30.7848 0.671802L30.869 1.42758L32.0465 1.3436L32.1306 1.93143L30.9531 2.01541L31.0372 2.93913L32.383 2.85516L32.2989 3.61094ZM31.7942 4.19876C31.7942 4.28274 31.7942 4.28274 31.8783 4.36671C31.8783 4.36671 31.9624 4.36671 32.0465 4.36671C32.1306 4.36671 32.2147 4.36671 32.2989 4.28274V4.70261C32.1306 4.78659 32.0465 4.78659 31.9624 4.78659C31.7942 4.78659 31.626 4.78659 31.5418 4.70261C31.4577 4.61864 31.3736 4.45069 31.3736 4.28274C31.3736 4.19876 31.3736 4.03081 31.4577 3.94684C31.5418 3.86286 31.626 3.69491 31.7942 3.61094H32.2147C32.1306 3.69491 32.0465 3.86286 31.9624 3.94684C31.7942 4.03081 31.7942 4.11479 31.7942 4.19876Z" fill="black"/>
<path d="M35.3269 1.59553L36.7568 1.67951L36.6727 3.52696C36.4204 3.61094 36.2521 3.61094 35.9998 3.69491C35.8316 3.69491 35.5792 3.69491 35.411 3.69491C34.9063 3.69491 34.4858 3.52696 34.1493 3.19106C33.897 2.85516 33.7288 2.43528 33.8129 1.76348C33.8129 1.17565 34.0652 0.755777 34.4017 0.419876C34.7381 0.0839753 35.2428 0 35.8316 0C36.168 0 36.5886 0.0839754 36.925 0.251926L36.6727 0.839753C36.4204 0.671802 36.168 0.587827 35.8316 0.587827C35.4951 0.587827 35.2428 0.671802 34.9905 0.923728C34.8222 1.17565 34.654 1.42758 34.654 1.76348C34.654 2.18336 34.7381 2.43528 34.8222 2.68721C34.9905 2.93913 35.1587 3.02311 35.4951 3.02311C35.6634 3.02311 35.8316 3.02311 35.9998 3.02311V2.26733H35.3269V1.59553Z" fill="black"/>
<path d="M41.4671 4.53467L40.5419 4.36672L39.5325 1.34361C39.4484 1.84746 39.4484 2.18336 39.3643 2.35131L39.0279 4.03082L38.355 3.86287L39.112 0.335907L40.0372 0.503858L41.0466 3.44299C41.1307 2.93914 41.1307 2.68721 41.2148 2.43529L41.5512 0.755783L42.2241 0.923734L41.4671 4.53467Z" fill="black"/>
<path d="M43.0651 5.03852L44.2426 1.59554L44.9996 1.84746L43.8221 5.29045L43.0651 5.03852Z" fill="black"/>
<path d="M47.439 6.802L47.6072 5.87827L46.4296 5.29045L45.8409 5.96225L45.0839 5.62635L47.7754 2.85516L48.6166 3.27504L48.196 7.1379L47.439 6.802ZM47.6913 5.29045C47.7754 4.45069 47.8595 4.03082 47.8595 3.94684C47.8595 3.86287 47.8595 3.77889 47.9437 3.69492C47.7754 3.86287 47.439 4.28274 46.8502 4.87057L47.6913 5.29045Z" fill="black"/>
<path d="M50.7193 7.05392L49.9623 8.22957L49.2894 7.8097L51.224 4.78659L52.0651 5.37442C52.4857 5.62634 52.738 5.87827 52.8221 6.21417C52.9062 6.46609 52.9062 6.802 52.6539 7.05392C52.5698 7.22187 52.4016 7.38982 52.2333 7.38982C52.0651 7.4738 51.8128 7.4738 51.6446 7.4738C51.6446 8.4815 51.6446 9.06933 51.6446 9.40523L50.9717 8.90138V7.30585L50.7193 7.05392ZM51.0558 6.55007L51.224 6.71802C51.3922 6.88597 51.5604 6.88597 51.7287 6.88597C51.8969 6.88597 51.981 6.802 52.0651 6.63405C52.1492 6.46609 52.1492 6.38212 52.1492 6.21417C52.0651 6.13019 51.981 5.96224 51.7287 5.79429L51.5604 5.62634L51.0558 6.55007Z" fill="black"/>
<path d="M54.2521 11.5886L52.6539 10.245L55.0091 7.47379L56.6072 8.8174L56.1866 9.32125L55.1773 8.4815L54.6726 9.06932L55.5978 9.8251L55.1773 10.329L54.2521 9.57317L53.6633 10.245L54.6726 11.0847L54.2521 11.5886Z" fill="black"/>
<path d="M57.364 14.7796L56.7752 14.1078L57.2799 12.4283L56.8593 12.3444L55.9341 13.1841L55.4294 12.5963L58.121 10.161L58.6257 10.7488L57.364 11.8405L57.8687 11.7565L59.4668 11.6726L60.0556 12.2604L58.0369 12.5123L57.364 14.7796Z" fill="black"/>
<path d="M59.3827 17.6348L62.4948 15.7873L62.9154 16.4591L59.7191 18.3066L59.3827 17.6348Z" fill="black"/>
<path d="M64.7659 23.1772C64.4295 23.3451 64.093 23.3451 63.8407 23.1772C63.5884 23.0092 63.336 22.7573 63.1678 22.3374L63.0837 22.0015L61.9061 22.4214L61.6538 21.7496L65.0183 20.49L65.4388 21.5816C65.6071 22.0015 65.6071 22.3374 65.5229 22.5893C65.4388 22.8413 65.1024 23.0932 64.7659 23.1772ZM63.5884 21.8336L63.6725 22.0855C63.7566 22.3374 63.8407 22.4214 64.0089 22.5054C64.1772 22.5893 64.2613 22.5893 64.4295 22.5054C64.5977 22.4214 64.6818 22.3374 64.7659 22.2534C64.85 22.1695 64.7659 22.0015 64.6818 21.7496L64.5977 21.4137L63.5884 21.8336Z" fill="black"/>
<path d="M65.3548 28.2997C64.766 28.4676 64.2613 28.3836 63.9249 28.1317C63.5884 27.8798 63.3361 27.5439 63.1679 27.04C63.0837 26.5362 63.0837 26.0323 63.3361 25.6964C63.5884 25.3605 64.009 25.1086 64.5978 24.9407C65.1865 24.7727 65.6912 24.8567 66.0277 25.1086C66.3641 25.3605 66.6164 25.6964 66.7847 26.2843C66.8688 26.7881 66.8688 27.292 66.6164 27.6279C66.3641 27.9638 65.9435 28.2157 65.3548 28.2997ZM64.766 25.7804C64.3454 25.8644 64.0931 26.0323 63.9249 26.2003C63.7566 26.3682 63.6725 26.6202 63.7566 26.9561C63.9249 27.5439 64.3454 27.7958 65.1024 27.5439C65.8594 27.3759 66.1959 26.9561 66.1118 26.3682C66.0277 26.0323 65.8594 25.8644 65.6912 25.7804C65.523 25.6964 65.1865 25.6964 64.766 25.7804Z" fill="black"/>
<path d="M63.8407 30.3151L65.0183 30.2311L64.9341 30.0631L65.3547 29.7272L65.6912 30.1471L67.4575 29.9792L67.5416 30.7349L66.2799 30.8189L66.5323 31.1548L65.9435 31.4907L65.5229 30.9029L64.5136 30.9869L64.5977 32.4145L64.0089 32.4984L63.8407 30.3151Z" fill="black"/>
<path d="M65.607 37.285C65.0183 37.285 64.5977 37.1171 64.2613 36.7812C63.9248 36.4453 63.8407 36.0254 63.8407 35.5215C63.8407 34.9337 64.093 34.5978 64.4295 34.2619C64.7659 34.01 65.2706 33.842 65.8594 33.926C66.4482 33.926 66.8687 34.094 67.2052 34.4299C67.5416 34.7658 67.6257 35.1856 67.6257 35.6895C67.6257 36.2773 67.3734 36.6132 67.0369 36.9491C66.7005 37.201 66.1958 37.285 65.607 37.285ZM65.7753 34.6818C65.3547 34.6818 65.1024 34.6818 64.85 34.8497C64.5977 35.0177 64.5136 35.1856 64.5136 35.5215C64.5136 36.1094 64.85 36.4453 65.6912 36.5292C66.5323 36.6132 66.9528 36.2773 66.9528 35.6895C66.9528 35.3536 66.8687 35.1856 66.7005 35.0177C66.4482 34.7658 66.1958 34.6818 65.7753 34.6818Z" fill="black"/>
<path d="M63.0836 41.0639L63.5883 38.4607L64.093 38.5446L66.1957 40.728L66.5322 39.0485L67.121 39.2164L66.6163 41.7357L66.1957 41.5678L64.093 39.3844L63.7565 41.1479L63.0836 41.0639ZM67.6256 40.1402C67.878 40.2242 67.9621 40.3081 67.878 40.644C67.7939 40.896 67.7098 40.9799 67.4574 40.9799C67.3733 40.9799 67.2892 40.896 67.2051 40.812C67.121 40.728 67.121 40.644 67.2051 40.4761C67.2892 40.2242 67.4574 40.1402 67.6256 40.1402Z" fill="black"/>
<path d="M61.6538 45.3466L61.9902 44.4229L65.1024 43.8351C64.5977 43.6671 64.3454 43.5832 64.093 43.4992L62.4949 42.9114L62.7473 42.2396L66.1117 43.4992L65.7753 44.4229L62.7473 45.0107C63.1678 45.1787 63.5043 45.2627 63.6725 45.3466L65.2706 45.9345L65.0183 46.6063L61.6538 45.3466Z" fill="black"/>
<path d="M62.2426 48.9576L63.1678 50.3012L62.7472 51.057L61.4014 48.9576L60.2239 48.2858L60.5603 47.614L61.7379 48.2858H64.2612L63.9248 48.9576H62.2426Z" fill="black"/>
<path d="M60.4762 53.3243C60.6445 53.0724 60.7286 52.8204 60.6445 52.5685C60.5604 52.3166 60.3921 52.0647 60.0557 51.8127C59.3828 51.3089 58.8781 51.3929 58.5417 51.8127C58.3735 51.9807 58.2893 52.3166 58.1211 52.6525L57.6165 52.3166C57.7006 51.9807 57.8688 51.7288 58.037 51.3929C58.3735 50.973 58.7099 50.7211 59.1305 50.7211C59.551 50.7211 59.9716 50.805 60.4762 51.2249C60.8127 51.4768 60.9809 51.7288 61.1491 51.9807C61.3174 52.2326 61.3174 52.5685 61.3174 52.8204C61.3174 53.0724 61.1491 53.4083 60.9809 53.6602C60.8127 53.9121 60.4762 54.164 60.1398 54.332L59.8034 53.7442C59.9716 53.6602 60.0557 53.5762 60.1398 53.4922C60.308 53.5762 60.3921 53.4922 60.4762 53.3243Z" fill="black"/>
<path d="M54.4202 55.6756L54.9248 55.1718L56.0183 56.2634L57.0276 55.2557L55.9342 54.164L56.4388 53.5762L59.0463 56.0955L58.5416 56.6833L57.5323 55.6756L56.523 56.6833L57.5323 57.691L57.0276 58.1949L54.4202 55.6756Z" fill="black"/>
<path d="M25.8223 67.0962L24.9812 66.8443L25.0653 64.9129C25.0653 64.8289 25.0653 64.661 25.0653 64.493C25.0653 64.3251 25.0653 64.1571 25.1494 64.0731C25.1494 64.1571 25.0653 64.3251 24.9812 64.493C24.8971 64.661 24.813 64.8289 24.813 64.9129L23.8036 66.5924L22.9625 66.3405L23.0466 62.6455L23.8036 62.8135L23.7195 64.8289C23.7195 65.1648 23.6354 65.5007 23.6354 65.7526C23.6354 65.6687 23.7195 65.5007 23.8036 65.3328C23.8878 65.1648 23.9719 64.9969 24.056 64.9129L25.1494 63.1494L25.8223 63.3174L25.7382 65.4167C25.7382 65.5007 25.7382 65.6687 25.7382 65.8366C25.7382 66.0046 25.7382 66.1725 25.6541 66.3405C25.7382 66.2565 25.7382 66.0885 25.8223 65.9206C25.9064 65.7526 25.9905 65.5847 26.0747 65.5007L27.084 63.7372L27.841 63.9052L25.8223 67.0962Z" fill="black"/>
<path d="M29.6072 67.768L29.6913 66.5924L29.5231 66.6764L29.2708 66.1725L29.7754 65.9206L29.9436 64.1571L30.7006 64.2411L30.6165 65.5007L30.953 65.3328L31.2053 65.8366L30.5324 66.1725L30.4483 67.1802L31.8782 67.3482L31.7941 67.936L29.6072 67.768Z" fill="black"/>
<path d="M36.3363 66.1725C36.3363 66.7603 36.2522 67.2642 35.9157 67.5161C35.6634 67.852 35.2428 68.02 34.654 68.02C34.0653 68.02 33.6447 67.852 33.3924 67.6001C33.14 67.3482 32.9718 66.8443 32.8877 66.2565C32.8877 65.6687 32.9718 65.1648 33.3083 64.9129C33.5606 64.577 33.9811 64.409 34.5699 64.409C35.1587 64.409 35.5793 64.577 35.8316 64.8289C36.168 65.1648 36.2522 65.5847 36.3363 66.1725ZM33.6447 66.2565C33.6447 66.6764 33.7288 66.9283 33.897 67.1802C34.0653 67.3482 34.3176 67.5161 34.5699 67.4321C35.1587 67.4321 35.4952 67.0123 35.4952 66.1725C35.4952 65.3328 35.1587 64.9969 34.5699 64.9969C34.2335 64.9969 34.0653 65.0808 33.897 65.3328C33.7288 65.5847 33.6447 65.8366 33.6447 66.2565Z" fill="black"/>
<path d="M40.4578 65.5847C40.5419 66.1725 40.4578 66.6764 40.2055 67.0123C39.9532 67.3482 39.4485 67.6001 38.8597 67.6841L37.8504 67.852L37.2616 64.3251L38.355 64.1571C38.9438 64.0731 39.4485 64.1571 39.7849 64.409C40.1214 64.661 40.3737 64.9969 40.4578 65.5847ZM39.7008 65.7526C39.6167 64.9969 39.1962 64.661 38.5233 64.7449L38.1027 64.8289L38.4392 67.1802L38.7756 67.0962C39.4485 66.9283 39.7849 66.5084 39.7008 65.7526Z" fill="black"/>
<path d="M44.3268 66.4244L41.7193 67.0962L41.5511 66.5924L42.5604 63.7372L40.9623 64.1571L40.7941 63.5693L43.3174 62.8975L43.4856 63.4013L42.4763 66.2565L44.1585 65.7526L44.3268 66.4244Z" fill="black"/>
<path d="M45.4202 66.0885L44.1586 62.7295L44.9156 62.4776L46.1772 65.8366L45.4202 66.0885Z" fill="black"/>
<path d="M57.1958 18.7265C56.6911 17.6348 55.85 16.4592 54.4201 15.5354C52.9902 14.6117 51.0557 13.9399 48.28 13.8559C41.9716 13.688 38.3548 16.2072 36.252 18.7265L31.9623 18.0547C29.7754 15.7034 26.2428 13.688 20.5232 13.8559C14.9718 14.0239 12.6167 16.5431 11.6073 18.7265C10.4298 21.2457 10.598 24.3528 11.355 26.9561C11.9438 29.0554 13.1214 30.9029 14.7195 32.4145C16.4017 34.01 17.9157 35.4376 19.3456 36.8651L21.1119 43.0793L26.411 44.5069C33.224 52.6525 33.8969 56.3474 33.981 56.3474C33.981 56.5154 34.1492 56.6833 34.4016 56.6833C34.5698 56.6833 34.8221 56.5154 34.8221 56.3474C34.8221 56.2634 35.495 52.8204 41.8034 45.2627L50.9716 43.9191L52.5697 33.842C53.1585 33.2542 53.8314 32.5824 54.5042 31.9946C55.5136 31.0708 56.3547 29.9792 56.8594 28.7195C58.121 25.9484 58.7098 21.9175 57.1958 18.7265ZM31.5418 18.8944L32.8035 19.0624L35.6633 19.4823L36.5885 19.6502L44.2426 20.7419L35.1586 22.2534L34.4857 22.3374L33.0558 20.8259L31.0371 18.7265L31.5418 18.8944ZM17.9998 32.2465L16.3176 31.8266L15.4765 28.8875L28.2614 32.0786L36.4203 30.567L38.9436 33.1702L33.8128 34.01L17.411 30.3151L17.9998 32.2465ZM37.4296 30.3151L36.5044 29.3913L39.8688 29.8952L45.0837 30.651L45.9249 30.8189L49.8781 31.4068L45.7566 32.0786L44.9155 32.2465L40.1212 33.0023L37.4296 30.3151ZM42.3922 29.4753L45.252 28.9715L45.0837 29.8952L42.3922 29.4753ZM28.3455 27.04L14.0466 23.933L13.1214 20.7419L28.2614 24.1009H28.3455L34.3175 23.1772L34.738 23.0932L46.5136 21.1618L46.009 24.2689L28.3455 27.04ZM12.3643 19.0624C13.7101 16.2912 16.4017 14.7796 20.5232 14.6957H21.1119C25.5699 14.6957 28.5138 16.1233 30.5324 17.8867L28.682 17.6348L33.4764 22.5893L28.3455 23.4291L12.112 19.8182C12.1961 19.4823 12.2802 19.2303 12.3643 19.0624ZM15.4765 31.9946C13.5419 30.2311 12.1961 27.8798 11.7756 25.2766C11.4391 23.5131 11.4391 21.5816 12.0279 19.9021L15.4765 31.9946C15.5606 31.9946 15.5606 31.9946 15.4765 31.9946ZM16.1494 32.5824L18.2522 33.1702L18.8409 35.1856C17.9998 34.3459 17.1587 33.5061 16.1494 32.5824ZM34.4016 54.9198C33.7287 53.2403 32.0465 50.0493 27.925 44.9268L33.4764 46.4383L40.4576 45.4306C36.5885 50.3012 35.0745 53.3243 34.4016 54.9198ZM51.7286 33.4222L51.5603 34.8497V34.9337L50.8033 39.5524L50.2146 43.2473L42.5604 44.3389L41.2987 44.5069L33.5605 45.5986L26.9998 43.8351L25.4858 43.4152L21.869 42.4075L21.0278 39.4684L20.6073 38.1248L20.1026 36.4453L19.5979 34.5978L19.2615 33.4222L19.0092 32.4984L18.6727 31.4068L32.1306 34.4299L33.8969 34.8497L45.5884 33.0023L52.065 31.9946L51.7286 33.4222ZM56.2706 28.0477C55.7659 29.3913 54.8407 30.567 53.8314 31.5747C53.4949 31.9106 53.1585 32.2465 52.7379 32.5824L52.9902 30.9869L52.4856 31.0709L45.9249 30.0631L47.4389 20.322L46.9342 20.406L37.2614 18.8944C39.2801 16.6271 42.6445 14.6117 48.28 14.6957C52.4015 14.7796 55.1771 16.2912 56.4388 19.0624C57.7846 21.9175 57.2799 25.4445 56.2706 28.0477Z" fill="black"/>
<path d="M51.5605 34.9337L50.8035 39.5524L46.0933 40.3921L44.6634 40.644L33.7289 42.6594L23.6355 40.1402L22.1215 39.7203L20.9439 39.4684L20.5234 38.0408L20.1028 36.3613L19.514 34.5978H19.5981L33.813 37.7049L49.9624 35.1856L51.3923 35.0177L51.5605 34.9337Z" fill="#D42A27"/>
<path d="M102.868 32.7892C102.868 34.8886 102.364 36.4841 101.354 37.5758C100.345 38.6675 98.8311 39.2553 96.8965 39.2553C94.962 39.2553 93.448 38.6675 92.4386 37.5758C91.4293 36.4841 90.9246 34.8886 90.9246 32.7892C90.9246 30.6898 91.4293 29.0943 92.5227 28.0026C93.5321 26.911 95.0461 26.3231 96.9807 26.3231C98.9152 26.3231 100.429 26.911 101.439 28.0026C102.364 29.0943 102.868 30.6898 102.868 32.7892ZM93.7003 32.7892C93.7003 34.2168 93.9526 35.2245 94.5414 35.9803C95.1302 36.7361 95.8872 37.072 96.9807 37.072C99.0834 37.072 100.177 35.6444 100.177 32.7892C100.177 29.9341 99.0834 28.5065 96.9807 28.5065C95.8872 28.5065 95.1302 28.8424 94.5414 29.5982C93.9526 30.27 93.7003 31.3616 93.7003 32.7892Z" fill="#656565"/>
<path d="M107.747 33.7969L108.924 32.3694L111.616 29.4302H114.56L110.691 33.629L114.728 39.0874H111.7L108.924 35.2245L107.831 36.1482V39.1714H105.224V25.7353H107.831V31.6976L107.747 33.7969Z" fill="#656565"/>
<path d="M121.541 29.2623C121.878 29.2623 122.214 29.2623 122.466 29.3462L122.298 31.7815C122.046 31.6976 121.794 31.6976 121.541 31.6976C120.7 31.6976 120.027 31.9495 119.607 32.3694C119.186 32.7892 118.934 33.3771 118.934 34.2168V39.0874H116.326V29.4302H118.345L118.766 31.0258H118.934C119.27 30.5219 119.607 30.018 120.111 29.6821C120.364 29.4302 120.952 29.2623 121.541 29.2623Z" fill="#656565"/>
<path d="M128.438 39.2553C126.924 39.2553 125.663 38.8355 124.822 37.9957C123.98 37.1559 123.476 35.8963 123.476 34.3848C123.476 32.7892 123.896 31.5296 124.653 30.6059C125.494 29.7661 126.588 29.2623 128.018 29.2623C129.364 29.2623 130.457 29.6821 131.214 30.4379C131.971 31.1937 132.392 32.2854 132.392 33.629V34.8886H126.167C126.167 35.6444 126.42 36.2322 126.84 36.6521C127.261 37.072 127.85 37.2399 128.607 37.2399C129.195 37.2399 129.7 37.1559 130.289 37.072C130.878 36.988 131.382 36.7361 131.887 36.4841V38.4996C131.466 38.7515 130.962 38.9194 130.373 39.0034C129.868 39.1714 129.195 39.2553 128.438 39.2553ZM128.102 31.1097C127.513 31.1097 127.093 31.2777 126.756 31.6136C126.42 31.9495 126.251 32.4533 126.251 33.1251H129.952C129.952 32.4533 129.784 31.9495 129.448 31.6136C129.111 31.2777 128.691 31.1097 128.102 31.1097ZM129.616 40.8509C129.616 41.1028 129.7 41.2707 129.784 41.3547C129.952 41.4387 130.121 41.5227 130.289 41.5227C130.625 41.5227 130.962 41.4387 131.298 41.3547V42.8663C130.793 43.0342 130.373 43.0342 129.952 43.0342C129.279 43.0342 128.775 42.8663 128.354 42.4464C127.934 42.1105 127.765 41.6066 127.765 41.0188C127.765 40.5989 127.85 40.263 128.102 39.9271C128.354 39.5912 128.691 39.1714 129.364 38.7515H130.878C130.457 39.1714 130.121 39.5073 129.952 39.7592C129.784 40.0111 129.616 40.515 129.616 40.8509Z" fill="#656565"/>
<path d="M142.906 29.4302V30.7738L141.392 31.1937C141.644 31.6136 141.812 32.1174 141.812 32.6213C141.812 33.629 141.476 34.4687 140.719 35.0566C139.962 35.6444 139.036 35.8963 137.691 35.8963H137.186L136.765 35.8123C136.513 35.9803 136.345 36.2322 136.345 36.4841C136.345 36.904 136.85 37.072 137.775 37.072H139.373C140.466 37.072 141.223 37.3239 141.812 37.7438C142.401 38.1637 142.653 38.8355 142.653 39.7592C142.653 40.8509 142.149 41.7746 141.223 42.3624C140.298 42.9502 138.952 43.2861 137.186 43.2861C135.84 43.2861 134.831 43.0342 134.074 42.6143C133.401 42.1105 132.98 41.5227 132.98 40.6829C132.98 40.0951 133.149 39.5912 133.485 39.2553C133.822 38.9194 134.41 38.5835 135.083 38.4156C134.831 38.3316 134.579 38.0797 134.41 37.8278C134.242 37.5758 134.074 37.3239 134.074 36.988C134.074 36.6521 134.158 36.3162 134.41 36.0643C134.663 35.8123 134.915 35.5604 135.336 35.3085C134.831 35.0566 134.41 34.7207 134.158 34.2168C133.822 33.713 133.737 33.1251 133.737 32.5373C133.737 31.4456 134.074 30.6899 134.747 30.102C135.42 29.5142 136.429 29.2623 137.691 29.2623C137.943 29.2623 138.279 29.2623 138.616 29.3462C138.952 29.4302 139.205 29.4302 139.289 29.4302H142.906ZM135.42 40.431C135.42 40.7669 135.588 41.1028 135.924 41.2707C136.261 41.4387 136.765 41.6066 137.354 41.6066C138.279 41.6066 139.036 41.4387 139.541 41.1868C140.046 40.9348 140.382 40.5989 140.382 40.0951C140.382 39.7592 140.214 39.5073 139.878 39.3393C139.541 39.1714 139.036 39.1714 138.448 39.1714H137.102C136.597 39.1714 136.177 39.2553 135.924 39.5073C135.588 39.7592 135.42 40.0951 135.42 40.431ZM136.429 32.6213C136.429 33.1251 136.513 33.545 136.765 33.8809C137.018 34.2168 137.354 34.3008 137.859 34.3008C138.364 34.3008 138.7 34.1328 138.952 33.8809C139.205 33.629 139.289 33.1251 139.289 32.6213C139.289 31.4456 138.784 30.8578 137.859 30.8578C136.85 30.8578 136.429 31.4456 136.429 32.6213Z" fill="#656565"/>
<path d="M153.167 34.2168C153.167 35.8123 152.747 36.988 151.905 37.9117C151.064 38.8355 149.887 39.2553 148.457 39.2553C147.532 39.2553 146.691 39.0874 146.018 38.6675C145.345 38.2476 144.756 37.6598 144.42 36.904C144.083 36.1482 143.831 35.2245 143.831 34.2168C143.831 32.6213 144.251 31.4456 145.092 30.5219C145.934 29.5982 147.111 29.1783 148.541 29.1783C149.466 29.1783 150.307 29.3463 150.98 29.7661C151.653 30.186 152.242 30.7738 152.578 31.5296C152.915 32.2854 153.167 33.2091 153.167 34.2168ZM146.522 34.2168C146.522 35.1405 146.691 35.8963 147.027 36.4002C147.363 36.904 147.868 37.1559 148.541 37.1559C149.214 37.1559 149.719 36.904 150.055 36.4002C150.391 35.8963 150.476 35.2245 150.476 34.2168C150.476 33.2931 150.307 32.5373 149.971 32.0335C149.634 31.5296 149.13 31.2777 148.457 31.2777C147.784 31.2777 147.279 31.5296 146.943 31.9495C146.691 32.5373 146.522 33.2931 146.522 34.2168Z" fill="#656565"/>
<path d="M163.261 39.0874L162.504 35.7284L161.494 31.4456H161.41L159.644 39.0874H156.784L154.008 29.4302H156.616L157.709 33.713C157.877 34.4687 158.046 35.5604 158.214 36.904H158.298C158.298 36.4841 158.382 35.8123 158.634 34.8046L158.803 34.0489L159.98 29.4302H162.84L163.933 34.0489C163.933 34.2168 164.018 34.3848 164.018 34.6367C164.018 34.8886 164.102 35.1405 164.186 35.3925C164.27 35.6444 164.27 35.9803 164.27 36.2322C164.27 36.4841 164.354 36.7361 164.354 36.904H164.438C164.522 36.4841 164.606 35.8963 164.69 35.2245C164.859 34.4687 164.943 34.0489 164.943 33.7969L166.12 29.5142H168.728L165.952 39.1714H163.261V39.0874Z" fill="#656565"/>
<path d="M176.466 39.0874L175.961 37.7438H175.877C175.457 38.3316 174.952 38.6675 174.532 38.9194C174.027 39.1714 173.438 39.2553 172.681 39.2553C171.756 39.2553 170.999 39.0034 170.494 38.4996C169.99 37.9957 169.737 37.2399 169.737 36.2322C169.737 35.2245 170.074 34.4687 170.831 33.9649C171.588 33.461 172.597 33.2091 174.111 33.1251L175.793 33.0412V32.6213C175.793 31.6136 175.289 31.1937 174.279 31.1937C173.522 31.1937 172.597 31.4456 171.588 31.8655L170.747 30.102C171.84 29.5142 173.102 29.2623 174.447 29.2623C175.709 29.2623 176.718 29.5142 177.391 30.102C178.064 30.6899 178.401 31.5296 178.401 32.7053V39.0874H176.466ZM175.709 34.6367H174.7C173.943 34.6367 173.354 34.8046 173.018 35.0566C172.681 35.3085 172.429 35.7284 172.429 36.2322C172.429 36.988 172.849 37.3239 173.69 37.3239C174.279 37.3239 174.784 37.1559 175.12 36.82C175.457 36.4841 175.709 35.9803 175.709 35.3925V34.6367Z" fill="#656565"/>
<path d="M185.718 39.0874V26.4911H188.41V39.0874H185.718Z" fill="#656565"/>
<path d="M197.999 39.0874H190.344V37.5758L194.802 31.5296H190.597V29.5142H197.83V31.1937L193.457 37.072H197.999V39.0874Z" fill="#656565"/>
<path d="M205.232 29.2623C206.41 29.2623 207.251 29.6821 207.924 30.6059C208.597 31.5296 208.849 32.7053 208.849 34.2168C208.849 35.8123 208.513 37.072 207.84 37.9117C207.167 38.7515 206.242 39.2553 205.148 39.2553C204.055 39.2553 203.129 38.8354 202.457 37.9957H202.288L201.868 39.0874H199.849V25.6513H202.457V28.7584C202.457 29.1783 202.457 29.7661 202.372 30.6898H202.457C203.129 29.7661 204.055 29.2623 205.232 29.2623ZM204.391 31.3616C203.718 31.3616 203.298 31.5296 202.961 31.9495C202.625 32.3694 202.541 33.0412 202.457 33.9649V34.2168C202.457 35.2245 202.625 35.9803 202.877 36.4002C203.214 36.82 203.634 37.072 204.307 37.072C204.812 37.072 205.316 36.82 205.569 36.3162C205.905 35.8123 206.073 35.0566 206.073 34.1328C206.073 33.2091 205.905 32.4533 205.569 32.0335C205.4 31.6136 204.98 31.3616 204.391 31.3616Z" fill="#656565"/>
<path d="M217.092 39.0874L216.587 37.7438H216.503C216.083 38.3316 215.578 38.6675 215.157 38.9194C214.653 39.1714 214.064 39.2553 213.307 39.2553C212.382 39.2553 211.625 39.0034 211.12 38.4996C210.615 37.9957 210.363 37.2399 210.363 36.2322C210.363 35.2245 210.7 34.4687 211.457 33.9649C212.214 33.461 213.223 33.2091 214.737 33.1251L216.419 33.0412V32.6213C216.419 31.6136 215.914 31.1937 214.905 31.1937C214.148 31.1937 213.223 31.4456 212.214 31.8655L211.372 30.102C212.466 29.5142 213.728 29.2623 215.073 29.2623C216.335 29.2623 217.344 29.5142 218.017 30.102C218.69 30.6899 219.027 31.5296 219.027 32.7053V39.0874H217.092ZM216.335 34.6367H215.326C214.569 34.6367 213.98 34.8046 213.643 35.0566C213.307 35.3085 213.055 35.7284 213.055 36.2322C213.055 36.988 213.475 37.3239 214.316 37.3239C214.905 37.3239 215.41 37.1559 215.746 36.82C216.083 36.4841 216.335 35.9803 216.335 35.3925V34.6367Z" fill="#656565"/>
<path d="M236.223 30.7567C236.223 32.1003 235.803 33.108 234.962 33.8638C234.121 34.6196 232.943 34.9555 231.345 34.9555H230.167V39.4062H227.476V26.8099H231.513C233.027 26.8099 234.205 27.1458 234.962 27.8176C235.803 28.4054 236.223 29.4131 236.223 30.7567ZM230.167 32.6882H231.009C231.85 32.6882 232.438 32.5202 232.859 32.1843C233.28 31.8484 233.448 31.4285 233.448 30.7567C233.448 30.1689 233.28 29.6651 232.943 29.3291C232.607 28.9932 232.102 28.9093 231.345 28.9093H230.167V32.6882Z" fill="#656565"/>
<path d="M238.242 27.2298C238.242 26.39 238.747 25.9701 239.672 25.9701C240.597 25.9701 241.102 26.39 241.102 27.2298C241.102 27.6496 241.018 27.9855 240.765 28.1535C240.513 28.4054 240.177 28.4894 239.672 28.4894C238.663 28.5734 238.242 28.1535 238.242 27.2298ZM240.934 39.4062H238.326V29.749H240.934V39.4062Z" fill="#656565"/>
<path d="M247.999 39.5741C246.485 39.5741 245.223 39.1543 244.382 38.3145C243.541 37.4747 243.036 36.2151 243.036 34.7036C243.036 33.108 243.457 31.8484 244.214 30.9247C245.055 30.0849 246.149 29.5811 247.578 29.5811C248.924 29.5811 250.018 30.001 250.775 30.7567C251.532 31.5125 251.952 32.6042 251.952 33.9478V35.2074H245.728C245.728 35.9632 245.98 36.551 246.401 36.9709C246.821 37.3908 247.41 37.5587 248.167 37.5587C248.756 37.5587 249.261 37.4747 249.849 37.3908C250.438 37.3068 250.943 37.0549 251.448 36.8029V38.8184C251.027 39.0703 250.522 39.2382 249.934 39.3222C249.429 39.4902 248.756 39.5741 247.999 39.5741ZM247.663 31.4285C247.074 31.4285 246.653 31.5965 246.317 31.9324C245.98 32.2683 245.812 32.7721 245.812 33.4439H249.513C249.513 32.7721 249.345 32.2683 249.008 31.9324C248.672 31.5965 248.167 31.4285 247.663 31.4285Z" fill="#656565"/>
<path d="M256.663 39.4062H254.055V25.9701H256.663V39.4062Z" fill="#656565"/>
<path d="M263.728 39.5741C262.214 39.5741 260.952 39.1543 260.111 38.3145C259.27 37.4747 258.765 36.2151 258.765 34.7036C258.765 33.108 259.186 31.8484 259.943 30.9247C260.784 30.0849 261.877 29.5811 263.307 29.5811C264.653 29.5811 265.747 30.001 266.504 30.7567C267.261 31.5125 267.681 32.6042 267.681 33.9478V35.2074H261.457C261.457 35.9632 261.709 36.551 262.13 36.9709C262.55 37.3908 263.139 37.5587 263.896 37.5587C264.485 37.5587 264.99 37.4747 265.578 37.3908C266.167 37.3068 266.672 37.0549 267.176 36.8029V38.8184C266.756 39.0703 266.251 39.2382 265.662 39.3222C265.158 39.4902 264.485 39.5741 263.728 39.5741ZM263.391 31.4285C262.803 31.4285 262.382 31.5965 262.046 31.9324C261.709 32.2683 261.541 32.7721 261.541 33.4439H265.242C265.242 32.7721 265.074 32.2683 264.737 31.9324C264.401 31.5965 263.896 31.4285 263.391 31.4285ZM264.821 41.1697C264.821 41.4216 264.905 41.5895 264.99 41.6735C265.158 41.7575 265.326 41.8415 265.494 41.8415C265.831 41.8415 266.167 41.7575 266.504 41.6735V43.1851C265.999 43.353 265.578 43.353 265.158 43.353C264.485 43.353 263.98 43.1851 263.56 42.7652C263.139 42.4293 262.971 41.9254 262.971 41.3376C262.971 40.9177 263.055 40.5818 263.307 40.2459C263.56 39.91 263.896 39.4902 264.569 39.0703H266.083C265.662 39.4902 265.326 39.8261 265.158 40.078C264.99 40.5818 264.821 40.8338 264.821 41.1697Z" fill="#656565"/>
<path d="M278.111 29.749V31.0926L276.597 31.5125C276.849 31.9324 277.018 32.4362 277.018 32.9401C277.018 33.9478 276.681 34.7875 275.924 35.3754C275.167 35.9632 274.242 36.2151 272.896 36.2151H272.391L271.971 36.1311C271.719 36.2991 271.55 36.551 271.55 36.8029C271.55 37.2228 272.055 37.3908 272.98 37.3908H274.578C275.672 37.3908 276.429 37.6427 277.018 38.0626C277.606 38.4825 277.859 39.1543 277.859 40.078C277.859 41.1697 277.354 42.0934 276.429 42.6812C275.504 43.269 274.158 43.6049 272.391 43.6049C271.046 43.6049 270.036 43.353 269.279 42.9331C268.606 42.4293 268.186 41.8415 268.186 41.0017C268.186 40.4139 268.354 39.91 268.691 39.5741C269.027 39.2382 269.616 38.9023 270.289 38.7344C270.036 38.6504 269.784 38.3985 269.616 38.1466C269.448 37.8946 269.279 37.6427 269.279 37.3068C269.279 36.9709 269.363 36.635 269.616 36.3831C269.868 36.1311 270.12 35.8792 270.541 35.6273C270.036 35.3754 269.616 35.0395 269.363 34.5356C269.027 34.0318 268.943 33.4439 268.943 32.8561C268.943 31.7644 269.279 31.0087 269.952 30.4208C270.625 29.833 271.634 29.5811 272.896 29.5811C273.148 29.5811 273.485 29.5811 273.821 29.6651C274.158 29.749 274.41 29.749 274.494 29.749H278.111ZM270.709 40.7498C270.709 41.0857 270.877 41.4216 271.214 41.5895C271.55 41.7575 272.055 41.9254 272.644 41.9254C273.569 41.9254 274.326 41.7575 274.831 41.5056C275.335 41.2536 275.672 40.9177 275.672 40.4139C275.672 40.078 275.504 39.8261 275.167 39.6581C274.831 39.4902 274.326 39.4902 273.737 39.4902H272.391C271.887 39.4902 271.466 39.5741 271.214 39.8261C270.877 40.078 270.709 40.4139 270.709 40.7498ZM271.634 32.9401C271.634 33.4439 271.719 33.8638 271.971 34.1997C272.223 34.5356 272.56 34.6196 273.064 34.6196C273.569 34.6196 273.905 34.4516 274.158 34.1997C274.41 33.8638 274.494 33.4439 274.494 32.9401C274.494 31.7644 273.99 31.1766 273.064 31.1766C272.139 31.1766 271.634 31.7644 271.634 32.9401Z" fill="#656565"/>
<path d="M288.625 39.4062H286.017V33.7798C286.017 33.108 285.933 32.6042 285.681 32.1843C285.429 31.8484 285.008 31.6805 284.503 31.6805C283.746 31.6805 283.242 31.9324 282.905 32.4362C282.569 32.9401 282.401 33.7798 282.401 34.8715V39.4062H279.793V29.749H281.812L282.148 31.0087H282.317C282.569 30.5048 282.989 30.1689 283.494 29.917C283.999 29.6651 284.588 29.5811 285.26 29.5811C286.354 29.5811 287.195 29.917 287.784 30.5048C288.373 31.0926 288.625 32.0164 288.625 33.108V39.4062Z" fill="#656565"/>
<path d="M291.148 27.2298C291.148 26.39 291.653 25.9701 292.578 25.9701C293.503 25.9701 294.008 26.39 294.008 27.2298C294.008 27.6496 293.924 27.9855 293.672 28.1535C293.419 28.4054 293.083 28.4894 292.578 28.4894C291.569 28.5734 291.148 28.1535 291.148 27.2298ZM293.84 39.4062H291.232V29.749H293.84V39.4062Z" fill="#656565"/>
<path d="M302.672 39.4062L302.167 38.0626H302.083C301.662 38.6504 301.158 38.9863 300.737 39.2382C300.232 39.4902 299.644 39.5741 298.887 39.5741C297.961 39.5741 297.204 39.3222 296.7 38.8184C296.195 38.3145 295.943 37.5587 295.943 36.551C295.943 35.5433 296.279 34.7875 297.036 34.2837C297.793 33.7798 298.802 33.5279 300.316 33.4439L301.999 33.36V32.9401C301.999 31.9324 301.494 31.5125 300.485 31.5125C299.728 31.5125 298.802 31.7644 297.793 32.1843L296.952 30.4208C298.045 29.833 299.307 29.5811 300.653 29.5811C301.915 29.5811 302.924 29.833 303.597 30.4208C304.27 31.0087 304.606 31.8484 304.606 33.0241V39.4062H302.672ZM301.915 34.9555H300.905C300.148 34.9555 299.559 35.1234 299.223 35.3754C298.887 35.6273 298.634 36.0472 298.634 36.551C298.634 37.3068 299.055 37.6427 299.896 37.6427C300.485 37.6427 300.989 37.4748 301.326 37.1389C301.662 36.803 301.915 36.2991 301.915 35.7113V34.9555Z" fill="#656565"/>
<path d="M312.597 29.5811C312.933 29.5811 313.27 29.5811 313.522 29.6651L313.354 32.1003C313.101 32.0164 312.849 32.0164 312.597 32.0164C311.756 32.0164 311.083 32.2683 310.662 32.6882C310.157 33.108 309.989 33.6959 309.989 34.5356V39.4062H307.382V29.749H309.4L309.821 31.3446H309.989C310.326 30.8407 310.662 30.3369 311.167 30.001C311.419 29.749 312.008 29.5811 312.597 29.5811Z" fill="#656565"/>
<path d="M319.494 39.5741C317.98 39.5741 316.718 39.1543 315.877 38.3145C315.036 37.4747 314.531 36.2151 314.531 34.7036C314.531 33.108 314.952 31.8484 315.709 30.9247C316.55 30.0849 317.643 29.5811 319.073 29.5811C320.419 29.5811 321.513 30.001 322.27 30.7567C323.027 31.5125 323.447 32.6042 323.447 33.9478V35.2074H317.223C317.223 35.9632 317.475 36.551 317.896 36.9709C318.316 37.3908 318.905 37.5587 319.662 37.5587C320.251 37.5587 320.756 37.4747 321.344 37.3908C321.933 37.3068 322.438 37.0549 322.942 36.8029V38.8184C322.522 39.0703 322.017 39.2382 321.428 39.3222C320.924 39.4902 320.251 39.5741 319.494 39.5741ZM319.157 31.4285C318.569 31.4285 318.148 31.5965 317.812 31.9324C317.475 32.2683 317.307 32.7721 317.307 33.4439H321.008C321.008 32.7721 320.84 32.2683 320.503 31.9324C320.167 31.5965 319.746 31.4285 319.157 31.4285Z" fill="#656565"/>
<path d="M328.073 34.1157L329.251 32.6882L331.942 29.749H334.886L331.017 33.9478L335.054 39.4062H332.026L329.251 35.5433L328.157 36.467V39.4902H325.55V26.0541H328.157V32.0164L328.073 34.1157Z" fill="#656565"/>
<path d="M340.858 27.2298C340.858 26.39 341.363 25.9701 342.288 25.9701C343.213 25.9701 343.718 26.39 343.718 27.2298C343.718 27.6496 343.634 27.9855 343.382 28.1535C343.129 28.4054 342.793 28.4894 342.288 28.4894C341.363 28.5734 340.858 28.1535 340.858 27.2298ZM343.634 39.4062H341.026V29.749H343.634V39.4062Z" fill="#656565"/>
<path d="M359.783 30.7567C359.783 32.1003 359.363 33.108 358.522 33.8638C357.681 34.6196 356.503 34.9555 354.905 34.9555H353.727V39.4062H351.036V26.8099H355.073C356.587 26.8099 357.765 27.1458 358.522 27.8176C359.363 28.4054 359.783 29.4131 359.783 30.7567ZM353.727 32.6882H354.568C355.409 32.6882 355.998 32.5202 356.419 32.1843C356.839 31.8484 357.008 31.4285 357.008 30.7567C357.008 30.1689 356.839 29.6651 356.503 29.3291C356.167 28.9932 355.662 28.9093 354.905 28.9093H353.727V32.6882Z" fill="#656565"/>
<path d="M370.634 34.5356C370.634 36.1311 370.213 37.3068 369.372 38.2305C368.531 39.1543 367.353 39.5741 365.923 39.5741C364.998 39.5741 364.157 39.4062 363.484 38.9863C362.811 38.5664 362.223 37.9786 361.886 37.2228C361.55 36.467 361.297 35.5433 361.297 34.5356C361.297 32.9401 361.718 31.7644 362.559 30.8407C363.4 29.917 364.578 29.4971 366.008 29.4971C366.933 29.4971 367.774 29.6651 368.447 30.0849C369.12 30.5048 369.709 31.0926 370.045 31.8484C370.381 32.6042 370.634 33.5279 370.634 34.5356ZM363.989 34.5356C363.989 35.4593 364.157 36.2151 364.494 36.719C364.83 37.2228 365.335 37.4747 366.008 37.4747C366.681 37.4747 367.185 37.2228 367.522 36.719C367.858 36.2151 367.942 35.5433 367.942 34.5356C367.942 33.6119 367.774 32.8561 367.438 32.3523C367.101 31.8484 366.596 31.5965 365.923 31.5965C365.251 31.5965 364.746 31.8484 364.41 32.2683C364.157 32.8561 363.989 33.6119 363.989 34.5356Z" fill="#656565"/>
<path d="M375.596 31.3446L376.185 31.0086L377.194 32.6882L375.596 33.6119V39.3222H372.989V35.2074L372.4 35.6273L371.391 33.9478L372.989 33.0241V26.0541H375.596V31.3446Z" fill="#656565"/>
<path d="M387.288 34.5356C387.288 36.1311 386.867 37.3068 386.026 38.2305C385.185 39.1543 384.007 39.5741 382.578 39.5741C381.652 39.5741 380.811 39.4062 380.138 38.9863C379.465 38.5664 378.877 37.9786 378.54 37.2228C378.204 36.467 377.951 35.5433 377.951 34.5356C377.951 32.9401 378.372 31.7644 379.213 30.8407C380.054 29.917 381.232 29.4971 382.662 29.4971C383.587 29.4971 384.428 29.6651 385.101 30.0849C385.774 30.5048 386.363 31.0926 386.699 31.8484C387.035 32.6042 387.288 33.5279 387.288 34.5356ZM380.643 34.5356C380.643 35.4593 380.811 36.2151 381.148 36.719C381.484 37.2228 381.989 37.4747 382.662 37.4747C383.335 37.4747 383.839 37.2228 384.176 36.719C384.512 36.2151 384.596 35.5433 384.596 34.5356C384.596 33.6119 384.428 32.8561 384.092 32.3523C383.755 31.8484 383.25 31.5965 382.578 31.5965C381.905 31.5965 381.4 31.8484 381.064 32.2683C380.811 32.8561 380.643 33.6119 380.643 34.5356Z" fill="#656565"/>
<path d="M396.119 39.4062H388.465V37.8946L392.923 31.8484H388.718V29.749H395.951V31.4285L391.577 37.3068H396.119V39.4062ZM390.905 27.2298C390.905 26.39 391.409 25.9701 392.334 25.9701C393.26 25.9701 393.764 26.39 393.764 27.2298C393.764 27.6496 393.68 27.9855 393.428 28.1535C393.176 28.4054 392.839 28.4894 392.334 28.4894C391.409 28.5734 390.905 28.1535 390.905 27.2298Z" fill="#656565"/>
<path d="M406.886 39.4062H404.278V33.7798C404.278 33.108 404.194 32.6042 403.942 32.1843C403.69 31.8484 403.269 31.6805 402.764 31.6805C402.007 31.6805 401.503 31.9324 401.166 32.4362C400.83 32.9401 400.662 33.7798 400.662 34.8715V39.4062H398.054V29.749H400.073L400.409 31.0087H400.577C400.83 30.5048 401.25 30.1689 401.755 29.917C402.26 29.6651 402.848 29.5811 403.521 29.5811C404.615 29.5811 405.456 29.917 406.045 30.5048C406.633 31.0926 406.886 32.0164 406.886 33.108V39.4062Z" fill="#656565"/>
<path d="M408.147 29.749H411.007L412.858 35.2074C413.026 35.7113 413.11 36.2151 413.194 36.8869H413.278C413.362 36.2991 413.446 35.7113 413.615 35.2074L415.381 29.749H418.241L414.203 40.5818C413.867 41.5895 413.278 42.3453 412.605 42.8492C411.932 43.353 411.091 43.6049 410.166 43.6049C409.746 43.6049 409.241 43.521 408.82 43.437V41.3376C409.157 41.4216 409.493 41.4216 409.83 41.4216C410.334 41.4216 410.671 41.2536 411.091 41.0017C411.428 40.7498 411.68 40.3299 411.932 39.7421L412.101 39.2382L408.147 29.749Z" fill="#656565"/>
<path d="M423.456 39.5741C420.428 39.5741 418.914 37.8946 418.914 34.6196C418.914 33.0241 419.334 31.7644 420.175 30.8407C421.017 30.001 422.194 29.5811 423.708 29.5811C424.802 29.5811 425.811 29.833 426.736 30.2529L425.979 32.2683C425.559 32.1003 425.138 31.9324 424.802 31.8484C424.465 31.7644 424.129 31.6805 423.708 31.6805C422.362 31.6805 421.689 32.6882 421.689 34.6196C421.689 36.467 422.362 37.4747 423.708 37.4747C424.213 37.4747 424.717 37.3908 425.138 37.3068C425.559 37.1388 425.979 36.9709 426.4 36.635V38.9023C425.979 39.1543 425.559 39.3222 425.138 39.4902C424.633 39.4902 424.129 39.5741 423.456 39.5741Z" fill="#656565"/>
<path d="M437.502 39.4062H434.895V33.7798C434.895 32.3523 434.39 31.6805 433.381 31.6805C432.624 31.6805 432.119 31.9324 431.783 32.4362C431.446 32.9401 431.278 33.7798 431.278 34.8715V39.4062H428.671V25.9701H431.278V28.7413C431.278 28.9932 431.278 29.4131 431.194 30.2529L431.11 31.0087H431.278C431.867 30.0849 432.792 29.5811 434.054 29.5811C435.147 29.5811 436.072 29.917 436.661 30.5048C437.25 31.0926 437.502 32.0164 437.502 33.108V39.4062Z" fill="#656565"/>
<path d="M452.558 39.4062L451.801 36.0472L450.792 31.7644H450.708L448.941 39.4062H446.082L443.474 29.749H446.082L447.175 34.0318C447.343 34.7875 447.512 35.8792 447.68 37.2228H447.764C447.764 36.8029 447.848 36.1311 448.1 35.1234L448.269 34.3677L449.446 29.749H452.306L453.399 34.3677C453.399 34.5356 453.484 34.7036 453.484 34.9555C453.568 35.2074 453.568 35.4593 453.652 35.7113C453.736 35.9632 453.736 36.2991 453.736 36.551C453.736 36.8029 453.82 37.0549 453.82 37.2228H453.904C453.988 36.8029 454.072 36.2151 454.156 35.5433C454.325 34.7875 454.409 34.3677 454.409 34.1157L455.67 29.749H458.278L455.502 39.4062H452.558Z" fill="#656565"/>
<path d="M464.502 39.4062V35.2074L463.913 35.5433L462.904 33.8638L464.502 32.9401V26.8939H467.194V31.3446L468.455 30.5888L469.465 32.2683L467.194 33.6119V37.2228H472.325V39.4062H464.502Z" fill="#656565"/>
<path d="M482.923 34.5356C482.923 36.1311 482.502 37.3068 481.661 38.2305C480.82 39.1543 479.642 39.5741 478.212 39.5741C477.287 39.5741 476.446 39.4062 475.773 38.9863C475.1 38.5664 474.511 37.9786 474.175 37.2228C473.839 36.467 473.586 35.5433 473.586 34.5356C473.586 32.9401 474.007 31.7644 474.848 30.8407C475.689 30.001 476.867 29.4971 478.296 29.4971C479.222 29.4971 480.063 29.6651 480.736 30.0849C481.409 30.5048 481.997 31.0926 482.334 31.8484C482.67 32.6042 482.923 33.5279 482.923 34.5356ZM476.278 34.5356C476.278 35.4593 476.446 36.2151 476.782 36.719C477.119 37.2228 477.624 37.4747 478.296 37.4747C478.969 37.4747 479.474 37.2228 479.811 36.719C480.147 36.2151 480.231 35.5433 480.231 34.5356C480.231 33.6119 480.063 32.8561 479.726 32.3523C479.39 31.8484 478.885 31.5965 478.212 31.5965C477.539 31.5965 477.035 31.8484 476.698 32.2683C476.446 32.8561 476.278 33.6119 476.278 34.5356Z" fill="#656565"/>
<path d="M488.138 39.5741C487.044 39.5741 486.119 39.1542 485.446 38.2305C484.773 37.3908 484.437 36.1311 484.437 34.6196C484.437 33.0241 484.773 31.8484 485.446 30.9247C486.119 30.0849 487.044 29.5811 488.138 29.5811C489.315 29.5811 490.24 30.0849 490.913 31.0086H490.997C490.829 30.2529 490.829 29.665 490.829 29.0772V25.9701H493.437V39.4062H491.418L490.997 38.1465H490.913C490.24 39.0703 489.315 39.5741 488.138 39.5741ZM489.063 37.4747C489.736 37.4747 490.24 37.3068 490.577 36.8869C490.913 36.467 491.081 35.7952 491.081 34.8715V34.6196C491.081 33.6119 490.913 32.8561 490.577 32.4362C490.24 32.0164 489.736 31.7644 488.979 31.7644C488.39 31.7644 487.969 32.0164 487.633 32.5202C487.296 33.0241 487.128 33.7798 487.128 34.7036C487.128 35.6273 487.296 36.3831 487.633 36.8029C487.969 37.2228 488.474 37.4747 489.063 37.4747Z" fill="#656565"/>
<path d="M502.941 39.4062H495.287V37.8946L499.745 31.8484H495.539V29.749H502.773V31.4285L498.399 37.3068H502.941V39.4062Z" fill="#656565"/>
<path d="M504.623 27.2298C504.623 26.39 505.128 25.9701 506.053 25.9701C506.978 25.9701 507.483 26.39 507.483 27.2298C507.483 27.6496 507.399 27.9855 507.147 28.1535C506.894 28.4054 506.558 28.4894 506.053 28.4894C505.128 28.5734 504.623 28.1535 504.623 27.2298ZM507.399 39.4062H504.792V29.749H507.399V39.4062Z" fill="#656565"/>
</svg>
