<svg width="26" height="18" viewBox="0 0 26 18" fill="none" xmlns="http://www.w3.org/2000/svg">
<path d="M1.95 3.86712V1.93855H6.825V16.0814H4.875C4.33469 16.0814 3.9 16.5113 3.9 17.0457C3.9 17.5801 4.33469 18.01 4.875 18.01H10.725C11.2653 18.01 11.7 17.5801 11.7 17.0457C11.7 16.5113 11.2653 16.0814 10.725 16.0814H8.775V1.93855H13.65V3.86712C13.65 4.4015 14.0847 4.83141 14.625 4.83141C15.1653 4.83141 15.6 4.4015 15.6 3.86712V1.61712C15.6 0.729176 14.8728 0.00997925 13.975 0.00997925H1.625C0.727187 0.00997925 0 0.729176 0 1.61712V3.86712C0 4.4015 0.434687 4.83141 0.975 4.83141C1.51531 4.83141 1.95 4.4015 1.95 3.86712ZM14.625 10.6171V9.65284H18.525V16.0814H17.225C16.6847 16.0814 16.25 16.5113 16.25 17.0457C16.25 17.5801 16.6847 18.01 17.225 18.01H21.775C22.3153 18.01 22.75 17.5801 22.75 17.0457C22.75 16.5113 22.3153 16.0814 21.775 16.0814H20.475V9.65284H24.05V10.6171C24.05 11.1515 24.4847 11.5814 25.025 11.5814C25.5653 11.5814 26 11.1515 26 10.6171V9.33141C26 8.44346 25.2728 7.72427 24.375 7.72427H14.3C13.4022 7.72427 12.675 8.44346 12.675 9.33141V10.6171C12.675 11.1515 13.1097 11.5814 13.65 11.5814C14.1903 11.5814 14.625 11.1515 14.625 10.6171Z" fill="#FFF"/>
</svg>
