<svg width="14" height="15" viewBox="0 0 14 15" fill="none" xmlns="http://www.w3.org/2000/svg">
<path d="M10.501 6.18806C10.501 5.55601 10.3765 4.93015 10.1347 4.34621C9.89279 3.76228 9.53827 3.2317 9.09134 2.78477C8.64441 2.33785 8.11384 1.98333 7.5299 1.74145C6.94596 1.49958 6.3201 1.37509 5.68806 1.37509C5.05601 1.37509 4.43015 1.49958 3.84621 1.74145C3.26228 1.98333 2.7317 2.33785 2.28477 2.78477C1.83785 3.2317 1.48333 3.76228 1.24145 4.34621C0.999577 4.93015 0.875085 5.55601 0.875085 6.18806C0.875085 6.8201 0.999577 7.44596 1.24145 8.0299C1.48333 8.61384 1.83785 9.14441 2.28477 9.59134C2.7317 10.0383 3.26228 10.3928 3.84621 10.6347C4.43015 10.8765 5.05601 11.001 5.68806 11.001C6.3201 11.001 6.94596 10.8765 7.5299 10.6347C8.11384 10.3928 8.64441 10.0383 9.09134 9.59134C9.53827 9.14441 9.89279 8.61384 10.1347 8.0299C10.3765 7.44596 10.501 6.8201 10.501 6.18806ZM9.38803 10.5088C8.39535 11.362 7.10187 11.8761 5.68806 11.8761C2.54595 11.8761 0 9.33016 0 6.18806C0 3.04595 2.54595 0.5 5.68806 0.5C8.83016 0.5 11.3761 3.04595 11.3761 6.18806C11.3761 7.60187 10.862 8.89535 10.0088 9.88803L13.8728 13.7548C14.0424 13.9244 14.0424 14.2033 13.8728 14.3728C13.7033 14.5424 13.4244 14.5424 13.2548 14.3728L9.38803 10.5088Z" fill="white"/>
</svg>
