<svg width="30" height="41" viewBox="0 0 30 41" fill="none" xmlns="http://www.w3.org/2000/svg">
<path d="M27.5 15.8811C27.5 8.97485 21.9062 3.3811 15 3.3811C8.09375 3.3811 2.5 8.97485 2.5 15.8811C2.5 17.0999 2.92188 18.7717 3.79688 20.8342C4.64844 22.8577 5.84375 25.053 7.20312 27.2483C9.86719 31.5686 13.0156 35.7014 15.0078 38.1858C16.9922 35.7014 20.1484 31.5686 22.8125 27.2483C24.1641 25.053 25.3672 22.8499 26.2188 20.8342C27.0781 18.7717 27.5 17.0999 27.5 15.8811ZM30 15.8811C30 22.7092 20.8594 34.8655 16.8516 39.8811C15.8906 41.0764 14.1094 41.0764 13.1484 39.8811C9.14062 34.8655 0 22.7092 0 15.8811C0 7.59985 6.71875 0.881104 15 0.881104C23.2812 0.881104 30 7.59985 30 15.8811ZM11.25 15.8811C11.25 16.8757 11.6451 17.8295 12.3483 18.5328C13.0516 19.236 14.0054 19.6311 15 19.6311C15.9946 19.6311 16.9484 19.236 17.6517 18.5328C18.3549 17.8295 18.75 16.8757 18.75 15.8811C18.75 14.8865 18.3549 13.9327 17.6517 13.2295C16.9484 12.5262 15.9946 12.1311 15 12.1311C14.0054 12.1311 13.0516 12.5262 12.3483 13.2295C11.6451 13.9327 11.25 14.8865 11.25 15.8811ZM15 22.1311C13.3424 22.1311 11.7527 21.4726 10.5806 20.3005C9.40848 19.1284 8.75 17.5387 8.75 15.8811C8.75 14.2235 9.40848 12.6338 10.5806 11.4617C11.7527 10.2896 13.3424 9.6311 15 9.6311C16.6576 9.6311 18.2473 10.2896 19.4194 11.4617C20.5915 12.6338 21.25 14.2235 21.25 15.8811C21.25 17.5387 20.5915 19.1284 19.4194 20.3005C18.2473 21.4726 16.6576 22.1311 15 22.1311Z" fill="#3BBCD3"/>
</svg>
